G04 #@! TF.GenerationSoftware,KiCad,Pcbnew,(6.0.0)*
G04 #@! TF.CreationDate,2024-08-25T19:28:41-07:00*
G04 #@! TF.ProjectId,stekeeb65_analog,7374656b-6565-4623-9635-5f616e616c6f,rev?*
G04 #@! TF.SameCoordinates,Original*
G04 #@! TF.FileFunction,Paste,Bot*
G04 #@! TF.FilePolarity,Positive*
%FSLAX46Y46*%
G04 Gerber Fmt 4.6, Leading zero omitted, Abs format (unit mm)*
G04 Created by KiCad (PCBNEW (6.0.0)) date 2024-08-25 19:28:41*
%MOMM*%
%LPD*%
G01*
G04 APERTURE LIST*
G04 Aperture macros list*
%AMRoundRect*
0 Rectangle with rounded corners*
0 $1 Rounding radius*
0 $2 $3 $4 $5 $6 $7 $8 $9 X,Y pos of 4 corners*
0 Add a 4 corners polygon primitive as box body*
4,1,4,$2,$3,$4,$5,$6,$7,$8,$9,$2,$3,0*
0 Add four circle primitives for the rounded corners*
1,1,$1+$1,$2,$3*
1,1,$1+$1,$4,$5*
1,1,$1+$1,$6,$7*
1,1,$1+$1,$8,$9*
0 Add four rect primitives between the rounded corners*
20,1,$1+$1,$2,$3,$4,$5,0*
20,1,$1+$1,$4,$5,$6,$7,0*
20,1,$1+$1,$6,$7,$8,$9,0*
20,1,$1+$1,$8,$9,$2,$3,0*%
%AMOutline5P*
0 Free polygon, 5 corners , with rotation*
0 The origin of the aperture is its center*
0 number of corners: always 5*
0 $1 to $10 corner X, Y*
0 $11 Rotation angle, in degrees counterclockwise*
0 create outline with 5 corners*
4,1,5,$1,$2,$3,$4,$5,$6,$7,$8,$9,$10,$1,$2,$11*%
%AMOutline6P*
0 Free polygon, 6 corners , with rotation*
0 The origin of the aperture is its center*
0 number of corners: always 6*
0 $1 to $12 corner X, Y*
0 $13 Rotation angle, in degrees counterclockwise*
0 create outline with 6 corners*
4,1,6,$1,$2,$3,$4,$5,$6,$7,$8,$9,$10,$11,$12,$1,$2,$13*%
%AMOutline7P*
0 Free polygon, 7 corners , with rotation*
0 The origin of the aperture is its center*
0 number of corners: always 7*
0 $1 to $14 corner X, Y*
0 $15 Rotation angle, in degrees counterclockwise*
0 create outline with 7 corners*
4,1,7,$1,$2,$3,$4,$5,$6,$7,$8,$9,$10,$11,$12,$13,$14,$1,$2,$15*%
%AMOutline8P*
0 Free polygon, 8 corners , with rotation*
0 The origin of the aperture is its center*
0 number of corners: always 8*
0 $1 to $16 corner X, Y*
0 $17 Rotation angle, in degrees counterclockwise*
0 create outline with 8 corners*
4,1,8,$1,$2,$3,$4,$5,$6,$7,$8,$9,$10,$11,$12,$13,$14,$15,$16,$1,$2,$17*%
G04 Aperture macros list end*
%ADD10RoundRect,0.237500X0.250000X0.237500X-0.250000X0.237500X-0.250000X-0.237500X0.250000X-0.237500X0*%
%ADD11Outline5P,-0.750000X0.180000X-0.480000X0.450000X0.750000X0.450000X0.750000X-0.450000X-0.750000X-0.450000X0.000000*%
%ADD12R,1.500000X0.900000*%
%ADD13R,0.800000X1.900000*%
%ADD14RoundRect,0.237500X0.237500X-0.300000X0.237500X0.300000X-0.237500X0.300000X-0.237500X-0.300000X0*%
%ADD15RoundRect,0.237500X-0.237500X0.300000X-0.237500X-0.300000X0.237500X-0.300000X0.237500X0.300000X0*%
%ADD16R,1.475000X0.300000*%
%ADD17R,0.300000X1.475000*%
%ADD18R,4.210000X4.210000*%
%ADD19RoundRect,0.237500X0.237500X-0.250000X0.237500X0.250000X-0.237500X0.250000X-0.237500X-0.250000X0*%
%ADD20R,0.450000X1.475000*%
%ADD21RoundRect,0.237500X0.300000X0.237500X-0.300000X0.237500X-0.300000X-0.237500X0.300000X-0.237500X0*%
%ADD22RoundRect,0.150000X0.650000X0.150000X-0.650000X0.150000X-0.650000X-0.150000X0.650000X-0.150000X0*%
%ADD23RoundRect,0.250000X0.292217X0.292217X-0.292217X0.292217X-0.292217X-0.292217X0.292217X-0.292217X0*%
%ADD24RoundRect,0.050000X0.387500X0.050000X-0.387500X0.050000X-0.387500X-0.050000X0.387500X-0.050000X0*%
%ADD25RoundRect,0.050000X0.050000X0.387500X-0.050000X0.387500X-0.050000X-0.387500X0.050000X-0.387500X0*%
%ADD26RoundRect,0.237500X-0.250000X-0.237500X0.250000X-0.237500X0.250000X0.237500X-0.250000X0.237500X0*%
%ADD27R,0.300000X1.400000*%
%ADD28RoundRect,0.237500X-0.237500X0.250000X-0.237500X-0.250000X0.237500X-0.250000X0.237500X0.250000X0*%
%ADD29RoundRect,0.237500X-0.300000X-0.237500X0.300000X-0.237500X0.300000X0.237500X-0.300000X0.237500X0*%
%ADD30RoundRect,0.150000X-0.825000X-0.150000X0.825000X-0.150000X0.825000X0.150000X-0.825000X0.150000X0*%
%ADD31R,2.000000X1.500000*%
%ADD32R,2.000000X3.800000*%
%ADD33R,1.400000X1.200000*%
%ADD34RoundRect,0.150000X-0.625000X0.150000X-0.625000X-0.150000X0.625000X-0.150000X0.625000X0.150000X0*%
%ADD35RoundRect,0.250000X-0.650000X0.350000X-0.650000X-0.350000X0.650000X-0.350000X0.650000X0.350000X0*%
%ADD36R,1.100000X1.800000*%
G04 APERTURE END LIST*
D10*
X198982500Y-111010000D03*
X197157500Y-111010000D03*
D11*
X262312500Y-136725000D03*
D12*
X267212500Y-136725000D03*
X267212500Y-138225000D03*
X262312500Y-138225000D03*
D13*
X156175000Y-106375000D03*
X154275000Y-106375000D03*
X155225000Y-103375000D03*
X141887500Y-163525000D03*
X139987500Y-163525000D03*
X140937500Y-160525000D03*
D11*
X324225000Y-174825000D03*
D12*
X329125000Y-174825000D03*
X329125000Y-176325000D03*
X324225000Y-176325000D03*
D13*
X160937500Y-163525000D03*
X159037500Y-163525000D03*
X159987500Y-160525000D03*
D14*
X138925000Y-106237500D03*
X138925000Y-104512500D03*
D13*
X346675000Y-182575000D03*
X344775000Y-182575000D03*
X345725000Y-179575000D03*
X68068700Y-144475000D03*
X66168700Y-144475000D03*
X67118700Y-141475000D03*
D14*
X205600000Y-125287500D03*
X205600000Y-123562500D03*
D13*
X165700000Y-125425000D03*
X163800000Y-125425000D03*
X164750000Y-122425000D03*
D14*
X152750000Y-150012500D03*
X152750000Y-148287500D03*
X229412500Y-144337500D03*
X229412500Y-142612500D03*
D15*
X342950000Y-129387500D03*
X342950000Y-131112500D03*
D11*
X248025000Y-174825000D03*
D12*
X252925000Y-174825000D03*
X252925000Y-176325000D03*
X248025000Y-176325000D03*
D15*
X79400000Y-135237500D03*
X79400000Y-136962500D03*
D14*
X67487500Y-125287500D03*
X67487500Y-123562500D03*
X162737500Y-163387500D03*
X162737500Y-161662500D03*
D16*
X72122000Y-131050000D03*
X72122000Y-130550000D03*
X72122000Y-130050000D03*
X72122000Y-129550000D03*
X72122000Y-129050000D03*
X72122000Y-128550000D03*
X72122000Y-128050000D03*
X72122000Y-127550000D03*
X72122000Y-127050000D03*
X72122000Y-126550000D03*
X72122000Y-126050000D03*
X72122000Y-125550000D03*
D17*
X73610000Y-124062000D03*
X74110000Y-124062000D03*
X74610000Y-124062000D03*
X75110000Y-124062000D03*
X75610000Y-124062000D03*
X76110000Y-124062000D03*
X76610000Y-124062000D03*
X77110000Y-124062000D03*
X77610000Y-124062000D03*
X78110000Y-124062000D03*
X78610000Y-124062000D03*
X79110000Y-124062000D03*
D16*
X80598000Y-125550000D03*
X80598000Y-126050000D03*
X80598000Y-126550000D03*
X80598000Y-127050000D03*
X80598000Y-127550000D03*
X80598000Y-128050000D03*
X80598000Y-128550000D03*
X80598000Y-129050000D03*
X80598000Y-129550000D03*
X80598000Y-130050000D03*
X80598000Y-130550000D03*
X80598000Y-131050000D03*
D17*
X79110000Y-132538000D03*
X78610000Y-132538000D03*
X78110000Y-132538000D03*
X77610000Y-132538000D03*
X77110000Y-132538000D03*
X76610000Y-132538000D03*
X76110000Y-132538000D03*
X75610000Y-132538000D03*
X75110000Y-132538000D03*
X74610000Y-132538000D03*
X74110000Y-132538000D03*
X73610000Y-132538000D03*
D18*
X76360000Y-128300000D03*
D13*
X79975000Y-106375000D03*
X78075000Y-106375000D03*
X79025000Y-103375000D03*
D11*
X238500000Y-117675000D03*
D12*
X243400000Y-117675000D03*
X243400000Y-119175000D03*
X238500000Y-119175000D03*
D14*
X348475000Y-125287500D03*
X348475000Y-123562500D03*
D13*
X146650000Y-125425000D03*
X144750000Y-125425000D03*
X145700000Y-122425000D03*
D14*
X200144356Y-183912500D03*
X200144356Y-182187500D03*
D13*
X132362500Y-144475000D03*
X130462500Y-144475000D03*
X131412500Y-141475000D03*
D19*
X337437500Y-137775000D03*
X337437500Y-135950000D03*
D13*
X194275000Y-106375000D03*
X192375000Y-106375000D03*
X193325000Y-103375000D03*
D14*
X181787500Y-163387500D03*
X181787500Y-161662500D03*
X115112500Y-144337500D03*
X115112500Y-142612500D03*
D11*
X107531200Y-174825000D03*
D12*
X112431200Y-174825000D03*
X112431200Y-176325000D03*
X107531200Y-176325000D03*
D11*
X257550000Y-117675000D03*
D12*
X262450000Y-117675000D03*
X262450000Y-119175000D03*
X257550000Y-119175000D03*
D14*
X69868700Y-144337500D03*
X69868700Y-142612500D03*
D13*
X184750000Y-125425000D03*
X182850000Y-125425000D03*
X183800000Y-122425000D03*
D11*
X114675000Y-98625000D03*
D12*
X119575000Y-98625000D03*
X119575000Y-100125000D03*
X114675000Y-100125000D03*
D14*
X96062500Y-144337500D03*
X96062500Y-142612500D03*
D10*
X210662500Y-180350000D03*
X208837500Y-180350000D03*
D13*
X260950000Y-125425000D03*
X259050000Y-125425000D03*
X260000000Y-122425000D03*
D20*
X156435000Y-146182000D03*
X157085000Y-146182000D03*
X157735000Y-146182000D03*
X158385000Y-146182000D03*
X159035000Y-146182000D03*
X159685000Y-146182000D03*
X160335000Y-146182000D03*
X160985000Y-146182000D03*
X161635000Y-146182000D03*
X162285000Y-146182000D03*
X162935000Y-146182000D03*
X163585000Y-146182000D03*
X163585000Y-152058000D03*
X162935000Y-152058000D03*
X162285000Y-152058000D03*
X161635000Y-152058000D03*
X160985000Y-152058000D03*
X160335000Y-152058000D03*
X159685000Y-152058000D03*
X159035000Y-152058000D03*
X158385000Y-152058000D03*
X157735000Y-152058000D03*
X157085000Y-152058000D03*
X156435000Y-152058000D03*
D11*
X124200000Y-117675000D03*
D12*
X129100000Y-117675000D03*
X129100000Y-119175000D03*
X124200000Y-119175000D03*
D13*
X127600000Y-125425000D03*
X125700000Y-125425000D03*
X126650000Y-122425000D03*
X189512500Y-144475000D03*
X187612500Y-144475000D03*
X188562500Y-141475000D03*
D21*
X198018144Y-179150000D03*
X196293144Y-179150000D03*
D13*
X108550000Y-125425000D03*
X106650000Y-125425000D03*
X107600000Y-122425000D03*
X322862500Y-125425000D03*
X320962500Y-125425000D03*
X321912500Y-122425000D03*
D14*
X210362500Y-144337500D03*
X210362500Y-142612500D03*
D11*
X143250000Y-117675000D03*
D12*
X148150000Y-117675000D03*
X148150000Y-119175000D03*
X143250000Y-119175000D03*
D11*
X109912500Y-136725000D03*
D12*
X114812500Y-136725000D03*
X114812500Y-138225000D03*
X109912500Y-138225000D03*
D13*
X137125000Y-106375000D03*
X135225000Y-106375000D03*
X136175000Y-103375000D03*
D11*
X343275000Y-174825000D03*
D12*
X348175000Y-174825000D03*
X348175000Y-176325000D03*
X343275000Y-176325000D03*
D19*
X157800000Y-181612500D03*
X157800000Y-179787500D03*
D13*
X87118800Y-182575000D03*
X85218800Y-182575000D03*
X86168800Y-179575000D03*
D14*
X219887500Y-163387500D03*
X219887500Y-161662500D03*
X257987500Y-163387500D03*
X257987500Y-161662500D03*
D11*
X281362500Y-136725000D03*
D12*
X286262500Y-136725000D03*
X286262500Y-138225000D03*
X281362500Y-138225000D03*
D11*
X243262500Y-136725000D03*
D12*
X248162500Y-136725000D03*
X248162500Y-138225000D03*
X243262500Y-138225000D03*
D22*
X225950000Y-172145000D03*
X225950000Y-173415000D03*
X225950000Y-174685000D03*
X225950000Y-175955000D03*
X218750000Y-175955000D03*
X218750000Y-174685000D03*
X218750000Y-173415000D03*
X218750000Y-172145000D03*
D13*
X241900000Y-125425000D03*
X240000000Y-125425000D03*
X240950000Y-122425000D03*
D14*
X244750000Y-113812500D03*
X244750000Y-112087500D03*
D20*
X246878304Y-109842000D03*
X247528304Y-109842000D03*
X248178304Y-109842000D03*
X248828304Y-109842000D03*
X249478304Y-109842000D03*
X250128304Y-109842000D03*
X250778304Y-109842000D03*
X251428304Y-109842000D03*
X252078304Y-109842000D03*
X252728304Y-109842000D03*
X253378304Y-109842000D03*
X254028304Y-109842000D03*
X254028304Y-115718000D03*
X253378304Y-115718000D03*
X252728304Y-115718000D03*
X252078304Y-115718000D03*
X251428304Y-115718000D03*
X250778304Y-115718000D03*
X250128304Y-115718000D03*
X249478304Y-115718000D03*
X248828304Y-115718000D03*
X248178304Y-115718000D03*
X247528304Y-115718000D03*
X246878304Y-115718000D03*
D21*
X197762500Y-171700000D03*
X196037500Y-171700000D03*
D13*
X299050000Y-125425000D03*
X297150000Y-125425000D03*
X298100000Y-122425000D03*
X265712500Y-144475000D03*
X263812500Y-144475000D03*
X264762500Y-141475000D03*
D14*
X277037500Y-163387500D03*
X277037500Y-161662500D03*
D13*
X113312500Y-144475000D03*
X111412500Y-144475000D03*
X112362500Y-141475000D03*
X284762500Y-144475000D03*
X282862500Y-144475000D03*
X283812500Y-141475000D03*
X199037500Y-163525000D03*
X197137500Y-163525000D03*
X198087500Y-160525000D03*
D23*
X204131856Y-174412500D03*
X202856856Y-175687500D03*
X202856856Y-174412500D03*
X204131856Y-175687500D03*
D24*
X206931856Y-172450000D03*
X206931856Y-172850000D03*
X206931856Y-173250000D03*
X206931856Y-173650000D03*
X206931856Y-174050000D03*
X206931856Y-174450000D03*
X206931856Y-174850000D03*
X206931856Y-175250000D03*
X206931856Y-175650000D03*
X206931856Y-176050000D03*
X206931856Y-176450000D03*
X206931856Y-176850000D03*
X206931856Y-177250000D03*
X206931856Y-177650000D03*
D25*
X206094356Y-178487500D03*
X205694356Y-178487500D03*
X205294356Y-178487500D03*
X204894356Y-178487500D03*
X204494356Y-178487500D03*
X204094356Y-178487500D03*
X203694356Y-178487500D03*
X203294356Y-178487500D03*
X202894356Y-178487500D03*
X202494356Y-178487500D03*
X202094356Y-178487500D03*
X201694356Y-178487500D03*
X201294356Y-178487500D03*
X200894356Y-178487500D03*
D24*
X200056856Y-177650000D03*
X200056856Y-177250000D03*
X200056856Y-176850000D03*
X200056856Y-176450000D03*
X200056856Y-176050000D03*
X200056856Y-175650000D03*
X200056856Y-175250000D03*
X200056856Y-174850000D03*
X200056856Y-174450000D03*
X200056856Y-174050000D03*
X200056856Y-173650000D03*
X200056856Y-173250000D03*
X200056856Y-172850000D03*
X200056856Y-172450000D03*
D25*
X200894356Y-171612500D03*
X201294356Y-171612500D03*
X201694356Y-171612500D03*
X202094356Y-171612500D03*
X202494356Y-171612500D03*
X202894356Y-171612500D03*
X203294356Y-171612500D03*
X203694356Y-171612500D03*
X204094356Y-171612500D03*
X204494356Y-171612500D03*
X204894356Y-171612500D03*
X205294356Y-171612500D03*
X205694356Y-171612500D03*
X206094356Y-171612500D03*
D14*
X291325000Y-182437500D03*
X291325000Y-180712500D03*
D21*
X198012500Y-180750000D03*
X196287500Y-180750000D03*
D14*
X148450000Y-125287500D03*
X148450000Y-123562500D03*
D11*
X205162500Y-136725000D03*
D12*
X210062500Y-136725000D03*
X210062500Y-138225000D03*
X205162500Y-138225000D03*
D14*
X300850000Y-125287500D03*
X300850000Y-123562500D03*
D11*
X252787500Y-155775000D03*
D12*
X257687500Y-155775000D03*
X257687500Y-157275000D03*
X252787500Y-157275000D03*
D13*
X270475000Y-106375000D03*
X268575000Y-106375000D03*
X269525000Y-103375000D03*
X182368800Y-182575000D03*
X180468800Y-182575000D03*
X181418800Y-179575000D03*
X99025000Y-106375000D03*
X97125000Y-106375000D03*
X98075000Y-103375000D03*
D14*
X110350000Y-125287500D03*
X110350000Y-123562500D03*
X310375000Y-182437500D03*
X310375000Y-180712500D03*
D11*
X343275000Y-117675000D03*
D12*
X348175000Y-117675000D03*
X348175000Y-119175000D03*
X343275000Y-119175000D03*
D13*
X251425000Y-106375000D03*
X249525000Y-106375000D03*
X250475000Y-103375000D03*
D11*
X343275000Y-155775000D03*
D12*
X348175000Y-155775000D03*
X348175000Y-157275000D03*
X343275000Y-157275000D03*
D11*
X271837500Y-155775000D03*
D12*
X276737500Y-155775000D03*
X276737500Y-157275000D03*
X271837500Y-157275000D03*
D11*
X176587500Y-155775000D03*
D12*
X181487500Y-155775000D03*
X181487500Y-157275000D03*
X176587500Y-157275000D03*
D26*
X191937500Y-184150000D03*
X193762500Y-184150000D03*
X163800000Y-170650000D03*
X165625000Y-170650000D03*
D14*
X224650000Y-125287500D03*
X224650000Y-123562500D03*
X184168800Y-182437500D03*
X184168800Y-180712500D03*
D11*
X167062500Y-136725000D03*
D12*
X171962500Y-136725000D03*
X171962500Y-138225000D03*
X167062500Y-138225000D03*
D13*
X275237500Y-163525000D03*
X273337500Y-163525000D03*
X274287500Y-160525000D03*
X89500000Y-125425000D03*
X87600000Y-125425000D03*
X88550000Y-122425000D03*
D14*
X196075000Y-106237500D03*
X196075000Y-104512500D03*
D11*
X152775000Y-98625000D03*
D12*
X157675000Y-98625000D03*
X157675000Y-100125000D03*
X152775000Y-100125000D03*
D14*
X267512500Y-144337500D03*
X267512500Y-142612500D03*
D27*
X345110000Y-129450000D03*
X345610000Y-129450000D03*
X346110000Y-129450000D03*
X346610000Y-129450000D03*
X347110000Y-129450000D03*
X347110000Y-133850000D03*
X346610000Y-133850000D03*
X346110000Y-133850000D03*
X345610000Y-133850000D03*
X345110000Y-133850000D03*
D21*
X201206856Y-169550000D03*
X199481856Y-169550000D03*
X143812500Y-173100000D03*
X142087500Y-173100000D03*
X197762500Y-170150000D03*
X196037500Y-170150000D03*
D28*
X167100000Y-148262500D03*
X167100000Y-150087500D03*
D13*
X208562500Y-144475000D03*
X206662500Y-144475000D03*
X207612500Y-141475000D03*
D14*
X105587500Y-163387500D03*
X105587500Y-161662500D03*
D21*
X147012500Y-168200000D03*
X145287500Y-168200000D03*
D29*
X82687500Y-131988000D03*
X84412500Y-131988000D03*
D13*
X232375000Y-106375000D03*
X230475000Y-106375000D03*
X231425000Y-103375000D03*
X72831200Y-163525000D03*
X70931200Y-163525000D03*
X71881200Y-160525000D03*
D21*
X147012500Y-169800000D03*
X145287500Y-169800000D03*
D13*
X65687500Y-125425000D03*
X63787500Y-125425000D03*
X64737500Y-122425000D03*
D11*
X95625000Y-98625000D03*
D12*
X100525000Y-98625000D03*
X100525000Y-100125000D03*
X95625000Y-100125000D03*
D11*
X224212500Y-136725000D03*
D12*
X229112500Y-136725000D03*
X229112500Y-138225000D03*
X224212500Y-138225000D03*
D15*
X206444356Y-182187500D03*
X206444356Y-183912500D03*
D11*
X267075000Y-174825000D03*
D12*
X271975000Y-174825000D03*
X271975000Y-176325000D03*
X267075000Y-176325000D03*
D11*
X319462500Y-117675000D03*
D12*
X324362500Y-117675000D03*
X324362500Y-119175000D03*
X319462500Y-119175000D03*
D14*
X124637500Y-163387500D03*
X124637500Y-161662500D03*
D13*
X346675000Y-163525000D03*
X344775000Y-163525000D03*
X345725000Y-160525000D03*
D11*
X157537500Y-155775000D03*
D12*
X162437500Y-155775000D03*
X162437500Y-157275000D03*
X157537500Y-157275000D03*
D28*
X167600000Y-172987500D03*
X167600000Y-174812500D03*
D13*
X346675000Y-125425000D03*
X344775000Y-125425000D03*
X345725000Y-122425000D03*
D14*
X248462500Y-144337500D03*
X248462500Y-142612500D03*
D11*
X162300000Y-117675000D03*
D12*
X167200000Y-117675000D03*
X167200000Y-119175000D03*
X162300000Y-119175000D03*
D14*
X100825000Y-106237500D03*
X100825000Y-104512500D03*
D19*
X224900000Y-169862500D03*
X224900000Y-168037500D03*
D13*
X315718800Y-144475000D03*
X313818800Y-144475000D03*
X314768800Y-141475000D03*
D14*
X134162500Y-144337500D03*
X134162500Y-142612500D03*
D11*
X298031200Y-155775000D03*
D12*
X302931200Y-155775000D03*
X302931200Y-157275000D03*
X298031200Y-157275000D03*
D20*
X113575000Y-109872000D03*
X114225000Y-109872000D03*
X114875000Y-109872000D03*
X115525000Y-109872000D03*
X116175000Y-109872000D03*
X116825000Y-109872000D03*
X117475000Y-109872000D03*
X118125000Y-109872000D03*
X118775000Y-109872000D03*
X119425000Y-109872000D03*
X120075000Y-109872000D03*
X120725000Y-109872000D03*
X120725000Y-115748000D03*
X120075000Y-115748000D03*
X119425000Y-115748000D03*
X118775000Y-115748000D03*
X118125000Y-115748000D03*
X117475000Y-115748000D03*
X116825000Y-115748000D03*
X116175000Y-115748000D03*
X115525000Y-115748000D03*
X114875000Y-115748000D03*
X114225000Y-115748000D03*
X113575000Y-115748000D03*
D14*
X112731200Y-182437500D03*
X112731200Y-180712500D03*
D13*
X237137500Y-163525000D03*
X235237500Y-163525000D03*
X236187500Y-160525000D03*
D14*
X172262500Y-144337500D03*
X172262500Y-142612500D03*
D11*
X69431200Y-155775000D03*
D12*
X74331200Y-155775000D03*
X74331200Y-157275000D03*
X69431200Y-157275000D03*
D14*
X324662500Y-125287500D03*
X324662500Y-123562500D03*
D13*
X227612500Y-144475000D03*
X225712500Y-144475000D03*
X226662500Y-141475000D03*
D30*
X219475000Y-184055000D03*
X219475000Y-182785000D03*
X219475000Y-181515000D03*
X219475000Y-180245000D03*
X224425000Y-180245000D03*
X224425000Y-181515000D03*
X224425000Y-182785000D03*
X224425000Y-184055000D03*
D14*
X157975000Y-106237500D03*
X157975000Y-104512500D03*
D21*
X220062500Y-170200000D03*
X218337500Y-170200000D03*
D14*
X167500000Y-125287500D03*
X167500000Y-123562500D03*
D13*
X327625000Y-163525000D03*
X325725000Y-163525000D03*
X326675000Y-160525000D03*
D11*
X76575000Y-98625000D03*
D12*
X81475000Y-98625000D03*
X81475000Y-100125000D03*
X76575000Y-100125000D03*
D11*
X100387500Y-155775000D03*
D12*
X105287500Y-155775000D03*
X105287500Y-157275000D03*
X100387500Y-157275000D03*
D11*
X314700000Y-98625000D03*
D12*
X319600000Y-98625000D03*
X319600000Y-100125000D03*
X314700000Y-100125000D03*
D14*
X215125000Y-106237500D03*
X215125000Y-104512500D03*
X272275000Y-182437500D03*
X272275000Y-180712500D03*
D11*
X171825000Y-98625000D03*
D12*
X176725000Y-98625000D03*
X176725000Y-100125000D03*
X171825000Y-100125000D03*
D29*
X74017500Y-119100000D03*
X75742500Y-119100000D03*
X82687500Y-130370000D03*
X84412500Y-130370000D03*
D13*
X222850000Y-125425000D03*
X220950000Y-125425000D03*
X221900000Y-122425000D03*
X280000000Y-125425000D03*
X278100000Y-125425000D03*
X279050000Y-122425000D03*
D14*
X81775000Y-106237500D03*
X81775000Y-104512500D03*
X109050000Y-114375000D03*
X109050000Y-112650000D03*
D13*
X251425000Y-182575000D03*
X249525000Y-182575000D03*
X250475000Y-179575000D03*
D29*
X157537500Y-171200000D03*
X159262500Y-171200000D03*
D14*
X238937500Y-163387500D03*
X238937500Y-161662500D03*
D21*
X281712500Y-167600000D03*
X279987500Y-167600000D03*
D28*
X228150000Y-179687500D03*
X228150000Y-181512500D03*
D11*
X148012500Y-136725000D03*
D12*
X152912500Y-136725000D03*
X152912500Y-138225000D03*
X148012500Y-138225000D03*
D11*
X305175000Y-174825000D03*
D12*
X310075000Y-174825000D03*
X310075000Y-176325000D03*
X305175000Y-176325000D03*
D29*
X208737500Y-171550000D03*
X210462500Y-171550000D03*
D14*
X348475000Y-163387500D03*
X348475000Y-161662500D03*
X234175000Y-106237500D03*
X234175000Y-104512500D03*
X200837500Y-163387500D03*
X200837500Y-161662500D03*
D13*
X308575000Y-182575000D03*
X306675000Y-182575000D03*
X307625000Y-179575000D03*
D14*
X186550000Y-125287500D03*
X186550000Y-123562500D03*
D15*
X82600000Y-135237500D03*
X82600000Y-136962500D03*
D14*
X281800000Y-125287500D03*
X281800000Y-123562500D03*
D13*
X218087500Y-163525000D03*
X216187500Y-163525000D03*
X217137500Y-160525000D03*
D11*
X200400000Y-117675000D03*
D12*
X205300000Y-117675000D03*
X205300000Y-119175000D03*
X200400000Y-119175000D03*
D29*
X209687500Y-176450000D03*
X211412500Y-176450000D03*
D14*
X272275000Y-106237500D03*
X272275000Y-104512500D03*
D10*
X214412500Y-180350000D03*
X212587500Y-180350000D03*
D14*
X62725000Y-106237500D03*
X62725000Y-104512500D03*
X129400000Y-125287500D03*
X129400000Y-123562500D03*
D11*
X90862500Y-136725000D03*
D12*
X95762500Y-136725000D03*
X95762500Y-138225000D03*
X90862500Y-138225000D03*
D11*
X286125000Y-98625000D03*
D12*
X291025000Y-98625000D03*
X291025000Y-100125000D03*
X286125000Y-100125000D03*
D14*
X348475000Y-144337500D03*
X348475000Y-142612500D03*
D31*
X168810000Y-109360000D03*
D32*
X162510000Y-111660000D03*
D31*
X168810000Y-111660000D03*
X168810000Y-113960000D03*
D14*
X191312500Y-144337500D03*
X191312500Y-142612500D03*
D11*
X181350000Y-117675000D03*
D12*
X186250000Y-117675000D03*
X186250000Y-119175000D03*
X181350000Y-119175000D03*
D11*
X209925000Y-98625000D03*
D12*
X214825000Y-98625000D03*
X214825000Y-100125000D03*
X209925000Y-100125000D03*
D26*
X294862500Y-166425000D03*
X296687500Y-166425000D03*
D13*
X94262500Y-144475000D03*
X92362500Y-144475000D03*
X93312500Y-141475000D03*
D33*
X202244356Y-182200000D03*
X204444356Y-182200000D03*
X204444356Y-183900000D03*
X202244356Y-183900000D03*
D28*
X226550000Y-179687500D03*
X226550000Y-181512500D03*
X69700000Y-131587500D03*
X69700000Y-133412500D03*
D14*
X177025000Y-106237500D03*
X177025000Y-104512500D03*
D13*
X213325000Y-106375000D03*
X211425000Y-106375000D03*
X212375000Y-103375000D03*
D11*
X295650000Y-117675000D03*
D12*
X300550000Y-117675000D03*
X300550000Y-119175000D03*
X295650000Y-119175000D03*
D14*
X88918800Y-182437500D03*
X88918800Y-180712500D03*
D13*
X346675000Y-144475000D03*
X344775000Y-144475000D03*
X345725000Y-141475000D03*
D26*
X82637500Y-133550000D03*
X84462500Y-133550000D03*
D11*
X83718800Y-174825000D03*
D12*
X88618800Y-174825000D03*
X88618800Y-176325000D03*
X83718800Y-176325000D03*
D15*
X171190000Y-112227500D03*
X171190000Y-113952500D03*
D11*
X119437500Y-155775000D03*
D12*
X124337500Y-155775000D03*
X124337500Y-157275000D03*
X119437500Y-157275000D03*
D14*
X74631200Y-163387500D03*
X74631200Y-161662500D03*
D11*
X178968800Y-174825000D03*
D12*
X183868800Y-174825000D03*
X183868800Y-176325000D03*
X178968800Y-176325000D03*
D11*
X233737500Y-155775000D03*
D12*
X238637500Y-155775000D03*
X238637500Y-157275000D03*
X233737500Y-157275000D03*
D14*
X143687500Y-163387500D03*
X143687500Y-161662500D03*
D13*
X122837500Y-163525000D03*
X120937500Y-163525000D03*
X121887500Y-160525000D03*
D29*
X157537500Y-172800000D03*
X159262500Y-172800000D03*
D14*
X319900000Y-106237500D03*
X319900000Y-104512500D03*
D11*
X105150000Y-117675000D03*
D12*
X110050000Y-117675000D03*
X110050000Y-119175000D03*
X105150000Y-119175000D03*
D11*
X286125000Y-174825000D03*
D12*
X291025000Y-174825000D03*
X291025000Y-176325000D03*
X286125000Y-176325000D03*
D14*
X348410000Y-106362500D03*
X348410000Y-104637500D03*
D26*
X257612500Y-112025000D03*
X259437500Y-112025000D03*
D11*
X64668700Y-136725000D03*
D12*
X69568700Y-136725000D03*
X69568700Y-138225000D03*
X64668700Y-138225000D03*
D19*
X335837500Y-137775000D03*
X335837500Y-135950000D03*
D14*
X329425000Y-163387500D03*
X329425000Y-161662500D03*
D11*
X186112500Y-136725000D03*
D12*
X191012500Y-136725000D03*
X191012500Y-138225000D03*
X186112500Y-138225000D03*
D14*
X153212500Y-144337500D03*
X153212500Y-142612500D03*
D19*
X339037500Y-137775000D03*
X339037500Y-135950000D03*
D13*
X318100000Y-106375000D03*
X316200000Y-106375000D03*
X317150000Y-103375000D03*
D11*
X138487500Y-155775000D03*
D12*
X143387500Y-155775000D03*
X143387500Y-157275000D03*
X138487500Y-157275000D03*
D14*
X91300000Y-125287500D03*
X91300000Y-123562500D03*
D28*
X67950000Y-131587500D03*
X67950000Y-133412500D03*
D11*
X59906200Y-174825000D03*
D12*
X64806200Y-174825000D03*
X64806200Y-176325000D03*
X59906200Y-176325000D03*
D14*
X203400000Y-168262500D03*
X203400000Y-166537500D03*
D20*
X284385000Y-163982000D03*
X285035000Y-163982000D03*
X285685000Y-163982000D03*
X286335000Y-163982000D03*
X286985000Y-163982000D03*
X287635000Y-163982000D03*
X288285000Y-163982000D03*
X288935000Y-163982000D03*
X289585000Y-163982000D03*
X290235000Y-163982000D03*
X290885000Y-163982000D03*
X291535000Y-163982000D03*
X291535000Y-169858000D03*
X290885000Y-169858000D03*
X290235000Y-169858000D03*
X289585000Y-169858000D03*
X288935000Y-169858000D03*
X288285000Y-169858000D03*
X287635000Y-169858000D03*
X286985000Y-169858000D03*
X286335000Y-169858000D03*
X285685000Y-169858000D03*
X285035000Y-169858000D03*
X284385000Y-169858000D03*
D19*
X159500000Y-181612500D03*
X159500000Y-179787500D03*
D13*
X346675000Y-106375000D03*
X344775000Y-106375000D03*
X345725000Y-103375000D03*
X289525000Y-182575000D03*
X287625000Y-182575000D03*
X288575000Y-179575000D03*
D29*
X157537500Y-174450000D03*
X159262500Y-174450000D03*
D13*
X151412500Y-144475000D03*
X149512500Y-144475000D03*
X150462500Y-141475000D03*
D11*
X312318800Y-136725000D03*
D12*
X317218800Y-136725000D03*
X317218800Y-138225000D03*
X312318800Y-138225000D03*
D21*
X143812500Y-171400000D03*
X142087500Y-171400000D03*
D29*
X74007500Y-120840000D03*
X75732500Y-120840000D03*
D11*
X248025000Y-98625000D03*
D12*
X252925000Y-98625000D03*
X252925000Y-100125000D03*
X248025000Y-100125000D03*
D28*
X226550000Y-168037500D03*
X226550000Y-169862500D03*
D13*
X301431200Y-163525000D03*
X299531200Y-163525000D03*
X300481200Y-160525000D03*
D11*
X343275000Y-98625000D03*
D12*
X348175000Y-98625000D03*
X348175000Y-100125000D03*
X343275000Y-100125000D03*
D14*
X205000000Y-168262500D03*
X205000000Y-166537500D03*
D13*
X256187500Y-163525000D03*
X254287500Y-163525000D03*
X255237500Y-160525000D03*
X270475000Y-182575000D03*
X268575000Y-182575000D03*
X269525000Y-179575000D03*
D11*
X128962500Y-136725000D03*
D12*
X133862500Y-136725000D03*
X133862500Y-138225000D03*
X128962500Y-138225000D03*
D26*
X197147500Y-112590000D03*
X198972500Y-112590000D03*
D34*
X201410000Y-110000000D03*
X201410000Y-111000000D03*
X201410000Y-112000000D03*
X201410000Y-113000000D03*
D35*
X205285000Y-108700000D03*
X205285000Y-114300000D03*
D21*
X201206856Y-167900000D03*
X199481856Y-167900000D03*
D14*
X303231200Y-163387500D03*
X303231200Y-161662500D03*
D11*
X86100000Y-117675000D03*
D12*
X91000000Y-117675000D03*
X91000000Y-119175000D03*
X86100000Y-119175000D03*
D13*
X179987500Y-163525000D03*
X178087500Y-163525000D03*
X179037500Y-160525000D03*
D14*
X243700000Y-125287500D03*
X243700000Y-123562500D03*
D11*
X267075000Y-98625000D03*
D12*
X271975000Y-98625000D03*
X271975000Y-100125000D03*
X267075000Y-100125000D03*
D11*
X276600000Y-117675000D03*
D12*
X281500000Y-117675000D03*
X281500000Y-119175000D03*
X276600000Y-119175000D03*
D19*
X334187500Y-137775000D03*
X334187500Y-135950000D03*
D14*
X253225000Y-106237500D03*
X253225000Y-104512500D03*
D11*
X133725000Y-98625000D03*
D12*
X138625000Y-98625000D03*
X138625000Y-100125000D03*
X133725000Y-100125000D03*
D13*
X60925000Y-106375000D03*
X59025000Y-106375000D03*
X59975000Y-103375000D03*
D28*
X164800000Y-172987500D03*
X164800000Y-174812500D03*
D11*
X343275000Y-136725000D03*
D12*
X348175000Y-136725000D03*
X348175000Y-138225000D03*
X343275000Y-138225000D03*
D11*
X214687500Y-155775000D03*
D12*
X219587500Y-155775000D03*
X219587500Y-157275000D03*
X214687500Y-157275000D03*
D13*
X289525000Y-106375000D03*
X287625000Y-106375000D03*
X288575000Y-103375000D03*
D21*
X198012500Y-176050000D03*
X196287500Y-176050000D03*
D14*
X253225000Y-182437500D03*
X253225000Y-180712500D03*
X329425000Y-182437500D03*
X329425000Y-180712500D03*
D13*
X63306200Y-182575000D03*
X61406200Y-182575000D03*
X62356200Y-179575000D03*
X118075000Y-106375000D03*
X116175000Y-106375000D03*
X117125000Y-103375000D03*
D15*
X81000000Y-135237500D03*
X81000000Y-136962500D03*
D14*
X262750000Y-125287500D03*
X262750000Y-123562500D03*
X348475000Y-182437500D03*
X348475000Y-180712500D03*
D13*
X170462500Y-144475000D03*
X168562500Y-144475000D03*
X169512500Y-141475000D03*
X246662500Y-144475000D03*
X244762500Y-144475000D03*
X245712500Y-141475000D03*
D15*
X217150000Y-182050000D03*
X217150000Y-183775000D03*
D17*
X153550000Y-181200000D03*
X153050000Y-181200000D03*
X152550000Y-181200000D03*
X152050000Y-181200000D03*
X151550000Y-181200000D03*
X151050000Y-181200000D03*
X150550000Y-181200000D03*
X150050000Y-181200000D03*
X149550000Y-181200000D03*
X149050000Y-181200000D03*
X148550000Y-181200000D03*
X148050000Y-181200000D03*
D16*
X146562000Y-179712000D03*
X146562000Y-179212000D03*
X146562000Y-178712000D03*
X146562000Y-178212000D03*
X146562000Y-177712000D03*
X146562000Y-177212000D03*
X146562000Y-176712000D03*
X146562000Y-176212000D03*
X146562000Y-175712000D03*
X146562000Y-175212000D03*
X146562000Y-174712000D03*
X146562000Y-174212000D03*
D17*
X148050000Y-172724000D03*
X148550000Y-172724000D03*
X149050000Y-172724000D03*
X149550000Y-172724000D03*
X150050000Y-172724000D03*
X150550000Y-172724000D03*
X151050000Y-172724000D03*
X151550000Y-172724000D03*
X152050000Y-172724000D03*
X152550000Y-172724000D03*
X153050000Y-172724000D03*
X153550000Y-172724000D03*
D16*
X155038000Y-174212000D03*
X155038000Y-174712000D03*
X155038000Y-175212000D03*
X155038000Y-175712000D03*
X155038000Y-176212000D03*
X155038000Y-176712000D03*
X155038000Y-177212000D03*
X155038000Y-177712000D03*
X155038000Y-178212000D03*
X155038000Y-178712000D03*
X155038000Y-179212000D03*
X155038000Y-179712000D03*
D18*
X150800000Y-176962000D03*
D14*
X65106200Y-182437500D03*
X65106200Y-180712500D03*
X119875000Y-106237500D03*
X119875000Y-104512500D03*
D11*
X219450000Y-117675000D03*
D12*
X224350000Y-117675000D03*
X224350000Y-119175000D03*
X219450000Y-119175000D03*
D11*
X62287500Y-117675000D03*
D12*
X67187500Y-117675000D03*
X67187500Y-119175000D03*
X62287500Y-119175000D03*
D19*
X111525000Y-114412500D03*
X111525000Y-112587500D03*
D13*
X110931200Y-182575000D03*
X109031200Y-182575000D03*
X109981200Y-179575000D03*
D14*
X291325000Y-106237500D03*
X291325000Y-104512500D03*
D11*
X195637500Y-155775000D03*
D12*
X200537500Y-155775000D03*
X200537500Y-157275000D03*
X195637500Y-157275000D03*
D14*
X317518800Y-144337500D03*
X317518800Y-142612500D03*
D13*
X175225000Y-106375000D03*
X173325000Y-106375000D03*
X174275000Y-103375000D03*
D36*
X193750000Y-172450000D03*
X190050000Y-166250000D03*
X190050000Y-172450000D03*
X193750000Y-166250000D03*
X190050000Y-175900000D03*
X193750000Y-182100000D03*
X193750000Y-175900000D03*
X190050000Y-182100000D03*
D11*
X57525000Y-98625000D03*
D12*
X62425000Y-98625000D03*
X62425000Y-100125000D03*
X57525000Y-100125000D03*
D11*
X190875000Y-98625000D03*
D12*
X195775000Y-98625000D03*
X195775000Y-100125000D03*
X190875000Y-100125000D03*
D11*
X228975000Y-98625000D03*
D12*
X233875000Y-98625000D03*
X233875000Y-100125000D03*
X228975000Y-100125000D03*
D14*
X286562500Y-144337500D03*
X286562500Y-142612500D03*
D13*
X327625000Y-182575000D03*
X325725000Y-182575000D03*
X326675000Y-179575000D03*
X103787500Y-163525000D03*
X101887500Y-163525000D03*
X102837500Y-160525000D03*
X203800000Y-125425000D03*
X201900000Y-125425000D03*
X202850000Y-122425000D03*
D11*
X324225000Y-155775000D03*
D12*
X329125000Y-155775000D03*
X329125000Y-157275000D03*
X324225000Y-157275000D03*
M02*
