%FSLAX45Y45*%
G04 Gerber Fmt 4.5, Leading zero omitted, Abs format (unit mm)*
G04 Created by KiCad (PCBNEW (6.0.0)) date 2024-08-25 19:28:53*
%MOMM*%
%LPD*%
G01*
G04 APERTURE LIST*
%TA.AperFunction,Profile*%
%ADD10C,0.100000*%
%TD*%
%ADD11C,0.200000*%
%ADD12C,0.174000*%
%ADD13C,0.304800*%
%ADD14C,0.398780*%
G04 APERTURE END LIST*
D10*
X5227000Y-9625000D02*
G75*
G03*
X5102000Y-9750000I0J-125000D01*
G01*
X5227000Y-18939000D02*
X35177000Y-18939000D01*
X35177000Y-9625000D02*
X5227000Y-9625000D01*
X5102000Y-9750000D02*
X5102000Y-18814000D01*
X35302000Y-9750000D02*
G75*
G03*
X35177000Y-9625000I-125000J0D01*
G01*
X5102000Y-18814000D02*
G75*
G03*
X5227000Y-18939000I125000J0D01*
G01*
X35177000Y-18939000D02*
G75*
G03*
X35302000Y-18814000I0J125000D01*
G01*
X35302000Y-18814000D02*
X35302000Y-9750000D01*
D11*
D12*
X5402500Y-10400500D02*
X5576500Y-10574500D01*
X5576500Y-10400500D02*
X5402500Y-10574500D01*
X5640620Y-18020500D02*
X5814620Y-18194500D01*
X5814620Y-18020500D02*
X5640620Y-18194500D01*
X5878750Y-12305500D02*
X6052750Y-12479500D01*
X6052750Y-12305500D02*
X5878750Y-12479500D01*
X6116870Y-14210500D02*
X6290870Y-14384500D01*
X6290870Y-14210500D02*
X6116870Y-14384500D01*
X6418500Y-10400500D02*
X6592500Y-10574500D01*
X6592500Y-10400500D02*
X6418500Y-10574500D01*
X6593120Y-16115500D02*
X6767120Y-16289500D01*
X6767120Y-16115500D02*
X6593120Y-16289500D01*
X6656620Y-18020500D02*
X6830620Y-18194500D01*
X6830620Y-18020500D02*
X6656620Y-18194500D01*
X6894750Y-12305500D02*
X7068750Y-12479500D01*
X7068750Y-12305500D02*
X6894750Y-12479500D01*
X7132870Y-14210500D02*
X7306870Y-14384500D01*
X7306870Y-14210500D02*
X7132870Y-14384500D01*
X7307500Y-10400500D02*
X7481500Y-10574500D01*
X7481500Y-10400500D02*
X7307500Y-10574500D01*
X7609120Y-16115500D02*
X7783120Y-16289500D01*
X7783120Y-16115500D02*
X7609120Y-16289500D01*
X8021880Y-18020500D02*
X8195880Y-18194500D01*
X8195880Y-18020500D02*
X8021880Y-18194500D01*
X8260000Y-12305500D02*
X8434000Y-12479500D01*
X8434000Y-12305500D02*
X8260000Y-12479500D01*
X8323500Y-10400500D02*
X8497500Y-10574500D01*
X8497500Y-10400500D02*
X8323500Y-10574500D01*
X8736250Y-14210500D02*
X8910250Y-14384500D01*
X8910250Y-14210500D02*
X8736250Y-14384500D01*
X9037880Y-18020500D02*
X9211880Y-18194500D01*
X9211880Y-18020500D02*
X9037880Y-18194500D01*
X9212500Y-10400500D02*
X9386500Y-10574500D01*
X9386500Y-10400500D02*
X9212500Y-10574500D01*
X9276000Y-12305500D02*
X9450000Y-12479500D01*
X9450000Y-12305500D02*
X9276000Y-12479500D01*
X9688750Y-16115500D02*
X9862750Y-16289500D01*
X9862750Y-16115500D02*
X9688750Y-16289500D01*
X9752250Y-14210500D02*
X9926250Y-14384500D01*
X9926250Y-14210500D02*
X9752250Y-14384500D01*
X10165000Y-12305500D02*
X10339000Y-12479500D01*
X10339000Y-12305500D02*
X10165000Y-12479500D01*
X10228500Y-10400500D02*
X10402500Y-10574500D01*
X10402500Y-10400500D02*
X10228500Y-10574500D01*
X10403120Y-18020500D02*
X10577120Y-18194500D01*
X10577120Y-18020500D02*
X10403120Y-18194500D01*
X10641250Y-14210500D02*
X10815250Y-14384500D01*
X10815250Y-14210500D02*
X10641250Y-14384500D01*
X10704750Y-16115500D02*
X10878750Y-16289500D01*
X10878750Y-16115500D02*
X10704750Y-16289500D01*
X11117500Y-10400500D02*
X11291500Y-10574500D01*
X11291500Y-10400500D02*
X11117500Y-10574500D01*
X11181000Y-12305500D02*
X11355000Y-12479500D01*
X11355000Y-12305500D02*
X11181000Y-12479500D01*
X11419120Y-18020500D02*
X11593120Y-18194500D01*
X11593120Y-18020500D02*
X11419120Y-18194500D01*
X11593750Y-16115500D02*
X11767750Y-16289500D01*
X11767750Y-16115500D02*
X11593750Y-16289500D01*
X11657250Y-14210500D02*
X11831250Y-14384500D01*
X11831250Y-14210500D02*
X11657250Y-14384500D01*
X12070000Y-12305500D02*
X12244000Y-12479500D01*
X12244000Y-12305500D02*
X12070000Y-12479500D01*
X12133500Y-10400500D02*
X12307500Y-10574500D01*
X12307500Y-10400500D02*
X12133500Y-10574500D01*
X12546250Y-14210500D02*
X12720250Y-14384500D01*
X12720250Y-14210500D02*
X12546250Y-14384500D01*
X12609750Y-16115500D02*
X12783750Y-16289500D01*
X12783750Y-16115500D02*
X12609750Y-16289500D01*
X13022500Y-10400500D02*
X13196500Y-10574500D01*
X13196500Y-10400500D02*
X13022500Y-10574500D01*
X13086000Y-12305500D02*
X13260000Y-12479500D01*
X13260000Y-12305500D02*
X13086000Y-12479500D01*
X13498750Y-16115500D02*
X13672750Y-16289500D01*
X13672750Y-16115500D02*
X13498750Y-16289500D01*
X13562250Y-14210500D02*
X13736250Y-14384500D01*
X13736250Y-14210500D02*
X13562250Y-14384500D01*
X13975000Y-12305500D02*
X14149000Y-12479500D01*
X14149000Y-12305500D02*
X13975000Y-12479500D01*
X14038500Y-10400500D02*
X14212500Y-10574500D01*
X14212500Y-10400500D02*
X14038500Y-10574500D01*
X14451250Y-14210500D02*
X14625250Y-14384500D01*
X14625250Y-14210500D02*
X14451250Y-14384500D01*
X14514750Y-16115500D02*
X14688750Y-16289500D01*
X14688750Y-16115500D02*
X14514750Y-16289500D01*
X14927500Y-10400500D02*
X15101500Y-10574500D01*
X15101500Y-10400500D02*
X14927500Y-10574500D01*
X14991000Y-12305500D02*
X15165000Y-12479500D01*
X15165000Y-12305500D02*
X14991000Y-12479500D01*
X15403750Y-16115500D02*
X15577750Y-16289500D01*
X15577750Y-16115500D02*
X15403750Y-16289500D01*
X15467250Y-14210500D02*
X15641250Y-14384500D01*
X15641250Y-14210500D02*
X15467250Y-14384500D01*
X15880000Y-12305500D02*
X16054000Y-12479500D01*
X16054000Y-12305500D02*
X15880000Y-12479500D01*
X15943500Y-10400500D02*
X16117500Y-10574500D01*
X16117500Y-10400500D02*
X15943500Y-10574500D01*
X16356250Y-14210500D02*
X16530250Y-14384500D01*
X16530250Y-14210500D02*
X16356250Y-14384500D01*
X16419750Y-16115500D02*
X16593750Y-16289500D01*
X16593750Y-16115500D02*
X16419750Y-16289500D01*
X16832500Y-10400500D02*
X17006500Y-10574500D01*
X17006500Y-10400500D02*
X16832500Y-10574500D01*
X16896000Y-12305500D02*
X17070000Y-12479500D01*
X17070000Y-12305500D02*
X16896000Y-12479500D01*
X17308750Y-16115500D02*
X17482750Y-16289500D01*
X17482750Y-16115500D02*
X17308750Y-16289500D01*
X17372250Y-14210500D02*
X17546250Y-14384500D01*
X17546250Y-14210500D02*
X17372250Y-14384500D01*
X17546880Y-18020500D02*
X17720880Y-18194500D01*
X17720880Y-18020500D02*
X17546880Y-18194500D01*
X17785000Y-12305500D02*
X17959000Y-12479500D01*
X17959000Y-12305500D02*
X17785000Y-12479500D01*
X17848500Y-10400500D02*
X18022500Y-10574500D01*
X18022500Y-10400500D02*
X17848500Y-10574500D01*
X18261250Y-14210500D02*
X18435250Y-14384500D01*
X18435250Y-14210500D02*
X18261250Y-14384500D01*
X18324750Y-16115500D02*
X18498750Y-16289500D01*
X18498750Y-16115500D02*
X18324750Y-16289500D01*
X18562880Y-18020500D02*
X18736880Y-18194500D01*
X18736880Y-18020500D02*
X18562880Y-18194500D01*
X18737500Y-10400500D02*
X18911500Y-10574500D01*
X18911500Y-10400500D02*
X18737500Y-10574500D01*
X18801000Y-12305500D02*
X18975000Y-12479500D01*
X18975000Y-12305500D02*
X18801000Y-12479500D01*
X19213750Y-16115500D02*
X19387750Y-16289500D01*
X19387750Y-16115500D02*
X19213750Y-16289500D01*
X19277250Y-14210500D02*
X19451250Y-14384500D01*
X19451250Y-14210500D02*
X19277250Y-14384500D01*
X19690000Y-12305500D02*
X19864000Y-12479500D01*
X19864000Y-12305500D02*
X19690000Y-12479500D01*
X19753500Y-10400500D02*
X19927500Y-10574500D01*
X19927500Y-10400500D02*
X19753500Y-10574500D01*
X20166250Y-14210500D02*
X20340250Y-14384500D01*
X20340250Y-14210500D02*
X20166250Y-14384500D01*
X20229750Y-16115500D02*
X20403750Y-16289500D01*
X20403750Y-16115500D02*
X20229750Y-16289500D01*
X20642500Y-10400500D02*
X20816500Y-10574500D01*
X20816500Y-10400500D02*
X20642500Y-10574500D01*
X20706000Y-12305500D02*
X20880000Y-12479500D01*
X20880000Y-12305500D02*
X20706000Y-12479500D01*
X21118750Y-16115500D02*
X21292750Y-16289500D01*
X21292750Y-16115500D02*
X21118750Y-16289500D01*
X21182250Y-14210500D02*
X21356250Y-14384500D01*
X21356250Y-14210500D02*
X21182250Y-14384500D01*
X21595000Y-12305500D02*
X21769000Y-12479500D01*
X21769000Y-12305500D02*
X21595000Y-12479500D01*
X21658500Y-10400500D02*
X21832500Y-10574500D01*
X21832500Y-10400500D02*
X21658500Y-10574500D01*
X22071250Y-14210500D02*
X22245250Y-14384500D01*
X22245250Y-14210500D02*
X22071250Y-14384500D01*
X22134750Y-16115500D02*
X22308750Y-16289500D01*
X22308750Y-16115500D02*
X22134750Y-16289500D01*
X22547500Y-10400500D02*
X22721500Y-10574500D01*
X22721500Y-10400500D02*
X22547500Y-10574500D01*
X22611000Y-12305500D02*
X22785000Y-12479500D01*
X22785000Y-12305500D02*
X22611000Y-12479500D01*
X23023750Y-16115500D02*
X23197750Y-16289500D01*
X23197750Y-16115500D02*
X23023750Y-16289500D01*
X23087250Y-14210500D02*
X23261250Y-14384500D01*
X23261250Y-14210500D02*
X23087250Y-14384500D01*
X23500000Y-12305500D02*
X23674000Y-12479500D01*
X23674000Y-12305500D02*
X23500000Y-12479500D01*
X23563500Y-10400500D02*
X23737500Y-10574500D01*
X23737500Y-10400500D02*
X23563500Y-10574500D01*
X23976250Y-14210500D02*
X24150250Y-14384500D01*
X24150250Y-14210500D02*
X23976250Y-14384500D01*
X24039750Y-16115500D02*
X24213750Y-16289500D01*
X24213750Y-16115500D02*
X24039750Y-16289500D01*
X24452500Y-10400500D02*
X24626500Y-10574500D01*
X24626500Y-10400500D02*
X24452500Y-10574500D01*
X24452500Y-18020500D02*
X24626500Y-18194500D01*
X24626500Y-18020500D02*
X24452500Y-18194500D01*
X24516000Y-12305500D02*
X24690000Y-12479500D01*
X24690000Y-12305500D02*
X24516000Y-12479500D01*
X24928750Y-16115500D02*
X25102750Y-16289500D01*
X25102750Y-16115500D02*
X24928750Y-16289500D01*
X24992250Y-14210500D02*
X25166250Y-14384500D01*
X25166250Y-14210500D02*
X24992250Y-14384500D01*
X25405000Y-12305500D02*
X25579000Y-12479500D01*
X25579000Y-12305500D02*
X25405000Y-12479500D01*
X25468500Y-10400500D02*
X25642500Y-10574500D01*
X25642500Y-10400500D02*
X25468500Y-10574500D01*
X25468500Y-18020500D02*
X25642500Y-18194500D01*
X25642500Y-18020500D02*
X25468500Y-18194500D01*
X25881250Y-14210500D02*
X26055250Y-14384500D01*
X26055250Y-14210500D02*
X25881250Y-14384500D01*
X25944750Y-16115500D02*
X26118750Y-16289500D01*
X26118750Y-16115500D02*
X25944750Y-16289500D01*
X26357500Y-10400500D02*
X26531500Y-10574500D01*
X26531500Y-10400500D02*
X26357500Y-10574500D01*
X26357500Y-18020500D02*
X26531500Y-18194500D01*
X26531500Y-18020500D02*
X26357500Y-18194500D01*
X26421000Y-12305500D02*
X26595000Y-12479500D01*
X26595000Y-12305500D02*
X26421000Y-12479500D01*
X26833750Y-16115500D02*
X27007750Y-16289500D01*
X27007750Y-16115500D02*
X26833750Y-16289500D01*
X26897250Y-14210500D02*
X27071250Y-14384500D01*
X27071250Y-14210500D02*
X26897250Y-14384500D01*
X27310000Y-12305500D02*
X27484000Y-12479500D01*
X27484000Y-12305500D02*
X27310000Y-12479500D01*
X27373500Y-10400500D02*
X27547500Y-10574500D01*
X27547500Y-10400500D02*
X27373500Y-10574500D01*
X27373500Y-18020500D02*
X27547500Y-18194500D01*
X27547500Y-18020500D02*
X27373500Y-18194500D01*
X27786250Y-14210500D02*
X27960250Y-14384500D01*
X27960250Y-14210500D02*
X27786250Y-14384500D01*
X27849750Y-16115500D02*
X28023750Y-16289500D01*
X28023750Y-16115500D02*
X27849750Y-16289500D01*
X28262500Y-10400500D02*
X28436500Y-10574500D01*
X28436500Y-10400500D02*
X28262500Y-10574500D01*
X28262500Y-18020500D02*
X28436500Y-18194500D01*
X28436500Y-18020500D02*
X28262500Y-18194500D01*
X28326000Y-12305500D02*
X28500000Y-12479500D01*
X28500000Y-12305500D02*
X28326000Y-12479500D01*
X28802250Y-14210500D02*
X28976250Y-14384500D01*
X28976250Y-14210500D02*
X28802250Y-14384500D01*
X29215000Y-12305500D02*
X29389000Y-12479500D01*
X29389000Y-12305500D02*
X29215000Y-12479500D01*
X29278500Y-10400500D02*
X29452500Y-10574500D01*
X29452500Y-10400500D02*
X29278500Y-10574500D01*
X29278500Y-18020500D02*
X29452500Y-18194500D01*
X29452500Y-18020500D02*
X29278500Y-18194500D01*
X29453120Y-16115500D02*
X29627120Y-16289500D01*
X29627120Y-16115500D02*
X29453120Y-16289500D01*
X30167500Y-18020500D02*
X30341500Y-18194500D01*
X30341500Y-18020500D02*
X30167500Y-18194500D01*
X30231000Y-12305500D02*
X30405000Y-12479500D01*
X30405000Y-12305500D02*
X30231000Y-12479500D01*
X30469120Y-16115500D02*
X30643120Y-16289500D01*
X30643120Y-16115500D02*
X30469120Y-16289500D01*
X30881880Y-14210500D02*
X31055880Y-14384500D01*
X31055880Y-14210500D02*
X30881880Y-14384500D01*
X31120000Y-10400500D02*
X31294000Y-10574500D01*
X31294000Y-10400500D02*
X31120000Y-10574500D01*
X31183500Y-18020500D02*
X31357500Y-18194500D01*
X31357500Y-18020500D02*
X31183500Y-18194500D01*
X31596250Y-12305500D02*
X31770250Y-12479500D01*
X31770250Y-12305500D02*
X31596250Y-12479500D01*
X31897880Y-14210500D02*
X32071880Y-14384500D01*
X32071880Y-14210500D02*
X31897880Y-14384500D01*
X32072500Y-16115500D02*
X32246500Y-16289500D01*
X32246500Y-16115500D02*
X32072500Y-16289500D01*
X32072500Y-18020500D02*
X32246500Y-18194500D01*
X32246500Y-18020500D02*
X32072500Y-18194500D01*
X32136000Y-10400500D02*
X32310000Y-10574500D01*
X32310000Y-10400500D02*
X32136000Y-10574500D01*
X32612250Y-12305500D02*
X32786250Y-12479500D01*
X32786250Y-12305500D02*
X32612250Y-12479500D01*
X33088500Y-16115500D02*
X33262500Y-16289500D01*
X33262500Y-16115500D02*
X33088500Y-16289500D01*
X33088500Y-18020500D02*
X33262500Y-18194500D01*
X33262500Y-18020500D02*
X33088500Y-18194500D01*
X33977500Y-10400500D02*
X34151500Y-10574500D01*
X34151500Y-10400500D02*
X33977500Y-10574500D01*
X33977500Y-12305500D02*
X34151500Y-12479500D01*
X34151500Y-12305500D02*
X33977500Y-12479500D01*
X33977500Y-14210500D02*
X34151500Y-14384500D01*
X34151500Y-14210500D02*
X33977500Y-14384500D01*
X33977500Y-16115500D02*
X34151500Y-16289500D01*
X34151500Y-16115500D02*
X33977500Y-16289500D01*
X33977500Y-18020500D02*
X34151500Y-18194500D01*
X34151500Y-18020500D02*
X33977500Y-18194500D01*
X34993500Y-10400500D02*
X35167500Y-10574500D01*
X35167500Y-10400500D02*
X34993500Y-10574500D01*
X34993500Y-12305500D02*
X35167500Y-12479500D01*
X35167500Y-12305500D02*
X34993500Y-12479500D01*
X34993500Y-14210500D02*
X35167500Y-14384500D01*
X35167500Y-14210500D02*
X34993500Y-14384500D01*
X34993500Y-16115500D02*
X35167500Y-16289500D01*
X35167500Y-16115500D02*
X34993500Y-16289500D01*
X34993500Y-18020500D02*
X35167500Y-18194500D01*
X35167500Y-18020500D02*
X34993500Y-18194500D01*
D13*
X6149895Y-15504000D02*
G75*
G03*
X6149895Y-15504000I-152400J0D01*
G01*
X8531145Y-15504000D02*
G75*
G03*
X8531145Y-15504000I-152400J0D01*
G01*
X13294290Y-18806000D02*
G75*
G03*
X13294290Y-18806000I-152400J0D01*
G01*
X23294270Y-18806000D02*
G75*
G03*
X23294270Y-18806000I-152400J0D01*
G01*
X30438655Y-13599000D02*
G75*
G03*
X30438655Y-13599000I-152400J0D01*
G01*
X30676775Y-9789000D02*
G75*
G03*
X30676775Y-9789000I-152400J0D01*
G01*
X32819905Y-13599000D02*
G75*
G03*
X32819905Y-13599000I-152400J0D01*
G01*
X33058025Y-9789000D02*
G75*
G03*
X33058025Y-9789000I-152400J0D01*
G01*
D14*
X5997495Y-16828610D02*
X5997495Y-17227390D01*
X5798105Y-17028000D02*
X6196885Y-17028000D01*
X8378745Y-16828610D02*
X8378745Y-17227390D01*
X8179355Y-17028000D02*
X8578135Y-17028000D01*
X13141890Y-17082610D02*
X13141890Y-17481390D01*
X12942500Y-17282000D02*
X13341280Y-17282000D01*
X23141870Y-17082610D02*
X23141870Y-17481390D01*
X22942480Y-17282000D02*
X23341260Y-17282000D01*
X30286255Y-14923610D02*
X30286255Y-15322390D01*
X30086865Y-15123000D02*
X30485645Y-15123000D01*
X30524375Y-11113610D02*
X30524375Y-11512390D01*
X30324985Y-11313000D02*
X30723765Y-11313000D01*
X32667505Y-14923610D02*
X32667505Y-15322390D01*
X32468115Y-15123000D02*
X32866895Y-15123000D01*
X32905625Y-11113610D02*
X32905625Y-11512390D01*
X32706235Y-11313000D02*
X33105015Y-11313000D01*
D11*
X5354619Y-19254476D02*
X5354619Y-19054476D01*
X5402238Y-19054476D01*
X5430810Y-19064000D01*
X5449857Y-19083048D01*
X5459381Y-19102095D01*
X5468905Y-19140190D01*
X5468905Y-19168762D01*
X5459381Y-19206857D01*
X5449857Y-19225905D01*
X5430810Y-19244952D01*
X5402238Y-19254476D01*
X5354619Y-19254476D01*
X5554619Y-19254476D02*
X5554619Y-19121143D01*
X5554619Y-19159238D02*
X5564143Y-19140190D01*
X5573667Y-19130667D01*
X5592714Y-19121143D01*
X5611762Y-19121143D01*
X5678428Y-19254476D02*
X5678428Y-19121143D01*
X5678428Y-19054476D02*
X5668905Y-19064000D01*
X5678428Y-19073524D01*
X5687952Y-19064000D01*
X5678428Y-19054476D01*
X5678428Y-19073524D01*
X5802238Y-19254476D02*
X5783190Y-19244952D01*
X5773667Y-19225905D01*
X5773667Y-19054476D01*
X5907000Y-19254476D02*
X5887952Y-19244952D01*
X5878428Y-19225905D01*
X5878428Y-19054476D01*
X6135571Y-19254476D02*
X6135571Y-19054476D01*
X6202238Y-19197333D01*
X6268905Y-19054476D01*
X6268905Y-19254476D01*
X6449857Y-19254476D02*
X6449857Y-19149714D01*
X6440333Y-19130667D01*
X6421286Y-19121143D01*
X6383190Y-19121143D01*
X6364143Y-19130667D01*
X6449857Y-19244952D02*
X6430809Y-19254476D01*
X6383190Y-19254476D01*
X6364143Y-19244952D01*
X6354619Y-19225905D01*
X6354619Y-19206857D01*
X6364143Y-19187810D01*
X6383190Y-19178286D01*
X6430809Y-19178286D01*
X6449857Y-19168762D01*
X6545095Y-19121143D02*
X6545095Y-19321143D01*
X6545095Y-19130667D02*
X6564143Y-19121143D01*
X6602238Y-19121143D01*
X6621286Y-19130667D01*
X6630809Y-19140190D01*
X6640333Y-19159238D01*
X6640333Y-19216381D01*
X6630809Y-19235429D01*
X6621286Y-19244952D01*
X6602238Y-19254476D01*
X6564143Y-19254476D01*
X6545095Y-19244952D01*
X6726048Y-19235429D02*
X6735571Y-19244952D01*
X6726048Y-19254476D01*
X6716524Y-19244952D01*
X6726048Y-19235429D01*
X6726048Y-19254476D01*
X6726048Y-19130667D02*
X6735571Y-19140190D01*
X6726048Y-19149714D01*
X6716524Y-19140190D01*
X6726048Y-19130667D01*
X6726048Y-19149714D01*
D12*
X4923000Y-19497000D02*
X5097000Y-19671000D01*
X5097000Y-19497000D02*
X4923000Y-19671000D01*
D11*
X5459381Y-19674476D02*
X5345095Y-19674476D01*
X5402238Y-19674476D02*
X5402238Y-19474476D01*
X5383190Y-19503048D01*
X5364143Y-19522095D01*
X5345095Y-19531619D01*
X5545095Y-19655429D02*
X5554619Y-19664952D01*
X5545095Y-19674476D01*
X5535571Y-19664952D01*
X5545095Y-19655429D01*
X5545095Y-19674476D01*
X5621286Y-19474476D02*
X5754619Y-19474476D01*
X5668905Y-19674476D01*
X5916524Y-19541143D02*
X5916524Y-19674476D01*
X5868905Y-19464952D02*
X5821286Y-19607810D01*
X5945095Y-19607810D01*
X6059381Y-19474476D02*
X6078428Y-19474476D01*
X6097476Y-19484000D01*
X6107000Y-19493524D01*
X6116524Y-19512571D01*
X6126048Y-19550667D01*
X6126048Y-19598286D01*
X6116524Y-19636381D01*
X6107000Y-19655429D01*
X6097476Y-19664952D01*
X6078428Y-19674476D01*
X6059381Y-19674476D01*
X6040333Y-19664952D01*
X6030809Y-19655429D01*
X6021286Y-19636381D01*
X6011762Y-19598286D01*
X6011762Y-19550667D01*
X6021286Y-19512571D01*
X6030809Y-19493524D01*
X6040333Y-19484000D01*
X6059381Y-19474476D01*
X6211762Y-19674476D02*
X6211762Y-19541143D01*
X6211762Y-19560190D02*
X6221286Y-19550667D01*
X6240333Y-19541143D01*
X6268905Y-19541143D01*
X6287952Y-19550667D01*
X6297476Y-19569714D01*
X6297476Y-19674476D01*
X6297476Y-19569714D02*
X6307000Y-19550667D01*
X6326048Y-19541143D01*
X6354619Y-19541143D01*
X6373667Y-19550667D01*
X6383190Y-19569714D01*
X6383190Y-19674476D01*
X6478428Y-19674476D02*
X6478428Y-19541143D01*
X6478428Y-19560190D02*
X6487952Y-19550667D01*
X6507000Y-19541143D01*
X6535571Y-19541143D01*
X6554619Y-19550667D01*
X6564143Y-19569714D01*
X6564143Y-19674476D01*
X6564143Y-19569714D02*
X6573667Y-19550667D01*
X6592714Y-19541143D01*
X6621286Y-19541143D01*
X6640333Y-19550667D01*
X6649857Y-19569714D01*
X6649857Y-19674476D01*
X7040333Y-19464952D02*
X6868905Y-19722095D01*
X7297476Y-19474476D02*
X7316524Y-19474476D01*
X7335571Y-19484000D01*
X7345095Y-19493524D01*
X7354619Y-19512571D01*
X7364143Y-19550667D01*
X7364143Y-19598286D01*
X7354619Y-19636381D01*
X7345095Y-19655429D01*
X7335571Y-19664952D01*
X7316524Y-19674476D01*
X7297476Y-19674476D01*
X7278428Y-19664952D01*
X7268905Y-19655429D01*
X7259381Y-19636381D01*
X7249857Y-19598286D01*
X7249857Y-19550667D01*
X7259381Y-19512571D01*
X7268905Y-19493524D01*
X7278428Y-19484000D01*
X7297476Y-19474476D01*
X7449857Y-19655429D02*
X7459381Y-19664952D01*
X7449857Y-19674476D01*
X7440333Y-19664952D01*
X7449857Y-19655429D01*
X7449857Y-19674476D01*
X7583190Y-19474476D02*
X7602238Y-19474476D01*
X7621286Y-19484000D01*
X7630809Y-19493524D01*
X7640333Y-19512571D01*
X7649857Y-19550667D01*
X7649857Y-19598286D01*
X7640333Y-19636381D01*
X7630809Y-19655429D01*
X7621286Y-19664952D01*
X7602238Y-19674476D01*
X7583190Y-19674476D01*
X7564143Y-19664952D01*
X7554619Y-19655429D01*
X7545095Y-19636381D01*
X7535571Y-19598286D01*
X7535571Y-19550667D01*
X7545095Y-19512571D01*
X7554619Y-19493524D01*
X7564143Y-19484000D01*
X7583190Y-19474476D01*
X7821286Y-19474476D02*
X7783190Y-19474476D01*
X7764143Y-19484000D01*
X7754619Y-19493524D01*
X7735571Y-19522095D01*
X7726048Y-19560190D01*
X7726048Y-19636381D01*
X7735571Y-19655429D01*
X7745095Y-19664952D01*
X7764143Y-19674476D01*
X7802238Y-19674476D01*
X7821286Y-19664952D01*
X7830809Y-19655429D01*
X7840333Y-19636381D01*
X7840333Y-19588762D01*
X7830809Y-19569714D01*
X7821286Y-19560190D01*
X7802238Y-19550667D01*
X7764143Y-19550667D01*
X7745095Y-19560190D01*
X7735571Y-19569714D01*
X7726048Y-19588762D01*
X7954619Y-19560190D02*
X7935571Y-19550667D01*
X7926048Y-19541143D01*
X7916524Y-19522095D01*
X7916524Y-19512571D01*
X7926048Y-19493524D01*
X7935571Y-19484000D01*
X7954619Y-19474476D01*
X7992714Y-19474476D01*
X8011762Y-19484000D01*
X8021286Y-19493524D01*
X8030809Y-19512571D01*
X8030809Y-19522095D01*
X8021286Y-19541143D01*
X8011762Y-19550667D01*
X7992714Y-19560190D01*
X7954619Y-19560190D01*
X7935571Y-19569714D01*
X7926048Y-19579238D01*
X7916524Y-19598286D01*
X7916524Y-19636381D01*
X7926048Y-19655429D01*
X7935571Y-19664952D01*
X7954619Y-19674476D01*
X7992714Y-19674476D01*
X8011762Y-19664952D01*
X8021286Y-19655429D01*
X8030809Y-19636381D01*
X8030809Y-19598286D01*
X8021286Y-19579238D01*
X8011762Y-19569714D01*
X7992714Y-19560190D01*
X8211762Y-19474476D02*
X8116524Y-19474476D01*
X8107000Y-19569714D01*
X8116524Y-19560190D01*
X8135571Y-19550667D01*
X8183190Y-19550667D01*
X8202238Y-19560190D01*
X8211762Y-19569714D01*
X8221286Y-19588762D01*
X8221286Y-19636381D01*
X8211762Y-19655429D01*
X8202238Y-19664952D01*
X8183190Y-19674476D01*
X8135571Y-19674476D01*
X8116524Y-19664952D01*
X8107000Y-19655429D01*
X8297476Y-19474476D02*
X8297476Y-19512571D01*
X8373667Y-19474476D02*
X8373667Y-19512571D01*
X8668905Y-19750667D02*
X8659381Y-19741143D01*
X8640333Y-19712571D01*
X8630810Y-19693524D01*
X8621286Y-19664952D01*
X8611762Y-19617333D01*
X8611762Y-19579238D01*
X8621286Y-19531619D01*
X8630810Y-19503048D01*
X8640333Y-19484000D01*
X8659381Y-19455429D01*
X8668905Y-19445905D01*
X8849857Y-19674476D02*
X8735571Y-19674476D01*
X8792714Y-19674476D02*
X8792714Y-19474476D01*
X8773667Y-19503048D01*
X8754619Y-19522095D01*
X8735571Y-19531619D01*
X8916524Y-19474476D02*
X9040333Y-19474476D01*
X8973667Y-19550667D01*
X9002238Y-19550667D01*
X9021286Y-19560190D01*
X9030810Y-19569714D01*
X9040333Y-19588762D01*
X9040333Y-19636381D01*
X9030810Y-19655429D01*
X9021286Y-19664952D01*
X9002238Y-19674476D01*
X8945095Y-19674476D01*
X8926048Y-19664952D01*
X8916524Y-19655429D01*
X9211762Y-19474476D02*
X9173667Y-19474476D01*
X9154619Y-19484000D01*
X9145095Y-19493524D01*
X9126048Y-19522095D01*
X9116524Y-19560190D01*
X9116524Y-19636381D01*
X9126048Y-19655429D01*
X9135571Y-19664952D01*
X9154619Y-19674476D01*
X9192714Y-19674476D01*
X9211762Y-19664952D01*
X9221286Y-19655429D01*
X9230810Y-19636381D01*
X9230810Y-19588762D01*
X9221286Y-19569714D01*
X9211762Y-19560190D01*
X9192714Y-19550667D01*
X9154619Y-19550667D01*
X9135571Y-19560190D01*
X9126048Y-19569714D01*
X9116524Y-19588762D01*
X9468905Y-19674476D02*
X9468905Y-19474476D01*
X9554619Y-19674476D02*
X9554619Y-19569714D01*
X9545095Y-19550667D01*
X9526048Y-19541143D01*
X9497476Y-19541143D01*
X9478429Y-19550667D01*
X9468905Y-19560190D01*
X9678429Y-19674476D02*
X9659381Y-19664952D01*
X9649857Y-19655429D01*
X9640333Y-19636381D01*
X9640333Y-19579238D01*
X9649857Y-19560190D01*
X9659381Y-19550667D01*
X9678429Y-19541143D01*
X9707000Y-19541143D01*
X9726048Y-19550667D01*
X9735571Y-19560190D01*
X9745095Y-19579238D01*
X9745095Y-19636381D01*
X9735571Y-19655429D01*
X9726048Y-19664952D01*
X9707000Y-19674476D01*
X9678429Y-19674476D01*
X9859381Y-19674476D02*
X9840333Y-19664952D01*
X9830810Y-19645905D01*
X9830810Y-19474476D01*
X10011762Y-19664952D02*
X9992714Y-19674476D01*
X9954619Y-19674476D01*
X9935571Y-19664952D01*
X9926048Y-19645905D01*
X9926048Y-19569714D01*
X9935571Y-19550667D01*
X9954619Y-19541143D01*
X9992714Y-19541143D01*
X10011762Y-19550667D01*
X10021286Y-19569714D01*
X10021286Y-19588762D01*
X9926048Y-19607810D01*
X10097476Y-19664952D02*
X10116524Y-19674476D01*
X10154619Y-19674476D01*
X10173667Y-19664952D01*
X10183190Y-19645905D01*
X10183190Y-19636381D01*
X10173667Y-19617333D01*
X10154619Y-19607810D01*
X10126048Y-19607810D01*
X10107000Y-19598286D01*
X10097476Y-19579238D01*
X10097476Y-19569714D01*
X10107000Y-19550667D01*
X10126048Y-19541143D01*
X10154619Y-19541143D01*
X10173667Y-19550667D01*
X10249857Y-19750667D02*
X10259381Y-19741143D01*
X10278429Y-19712571D01*
X10287952Y-19693524D01*
X10297476Y-19664952D01*
X10307000Y-19617333D01*
X10307000Y-19579238D01*
X10297476Y-19531619D01*
X10287952Y-19503048D01*
X10278429Y-19484000D01*
X10259381Y-19455429D01*
X10249857Y-19445905D01*
X10611762Y-19750667D02*
X10602238Y-19741143D01*
X10583190Y-19712571D01*
X10573667Y-19693524D01*
X10564143Y-19664952D01*
X10554619Y-19617333D01*
X10554619Y-19579238D01*
X10564143Y-19531619D01*
X10573667Y-19503048D01*
X10583190Y-19484000D01*
X10602238Y-19455429D01*
X10611762Y-19445905D01*
X10687952Y-19541143D02*
X10687952Y-19674476D01*
X10687952Y-19560190D02*
X10697476Y-19550667D01*
X10716524Y-19541143D01*
X10745095Y-19541143D01*
X10764143Y-19550667D01*
X10773667Y-19569714D01*
X10773667Y-19674476D01*
X10897476Y-19674476D02*
X10878429Y-19664952D01*
X10868905Y-19655429D01*
X10859381Y-19636381D01*
X10859381Y-19579238D01*
X10868905Y-19560190D01*
X10878429Y-19550667D01*
X10897476Y-19541143D01*
X10926048Y-19541143D01*
X10945095Y-19550667D01*
X10954619Y-19560190D01*
X10964143Y-19579238D01*
X10964143Y-19636381D01*
X10954619Y-19655429D01*
X10945095Y-19664952D01*
X10926048Y-19674476D01*
X10897476Y-19674476D01*
X11021286Y-19541143D02*
X11097476Y-19541143D01*
X11049857Y-19474476D02*
X11049857Y-19645905D01*
X11059381Y-19664952D01*
X11078429Y-19674476D01*
X11097476Y-19674476D01*
X11316524Y-19541143D02*
X11316524Y-19741143D01*
X11316524Y-19550667D02*
X11335571Y-19541143D01*
X11373667Y-19541143D01*
X11392714Y-19550667D01*
X11402238Y-19560190D01*
X11411762Y-19579238D01*
X11411762Y-19636381D01*
X11402238Y-19655429D01*
X11392714Y-19664952D01*
X11373667Y-19674476D01*
X11335571Y-19674476D01*
X11316524Y-19664952D01*
X11526048Y-19674476D02*
X11507000Y-19664952D01*
X11497476Y-19645905D01*
X11497476Y-19474476D01*
X11687952Y-19674476D02*
X11687952Y-19569714D01*
X11678428Y-19550667D01*
X11659381Y-19541143D01*
X11621286Y-19541143D01*
X11602238Y-19550667D01*
X11687952Y-19664952D02*
X11668905Y-19674476D01*
X11621286Y-19674476D01*
X11602238Y-19664952D01*
X11592714Y-19645905D01*
X11592714Y-19626857D01*
X11602238Y-19607810D01*
X11621286Y-19598286D01*
X11668905Y-19598286D01*
X11687952Y-19588762D01*
X11754619Y-19541143D02*
X11830809Y-19541143D01*
X11783190Y-19474476D02*
X11783190Y-19645905D01*
X11792714Y-19664952D01*
X11811762Y-19674476D01*
X11830809Y-19674476D01*
X11973667Y-19664952D02*
X11954619Y-19674476D01*
X11916524Y-19674476D01*
X11897476Y-19664952D01*
X11887952Y-19645905D01*
X11887952Y-19569714D01*
X11897476Y-19550667D01*
X11916524Y-19541143D01*
X11954619Y-19541143D01*
X11973667Y-19550667D01*
X11983190Y-19569714D01*
X11983190Y-19588762D01*
X11887952Y-19607810D01*
X12154619Y-19674476D02*
X12154619Y-19474476D01*
X12154619Y-19664952D02*
X12135571Y-19674476D01*
X12097476Y-19674476D01*
X12078428Y-19664952D01*
X12068905Y-19655429D01*
X12059381Y-19636381D01*
X12059381Y-19579238D01*
X12068905Y-19560190D01*
X12078428Y-19550667D01*
X12097476Y-19541143D01*
X12135571Y-19541143D01*
X12154619Y-19550667D01*
X12230809Y-19750667D02*
X12240333Y-19741143D01*
X12259381Y-19712571D01*
X12268905Y-19693524D01*
X12278428Y-19664952D01*
X12287952Y-19617333D01*
X12287952Y-19579238D01*
X12278428Y-19531619D01*
X12268905Y-19503048D01*
X12259381Y-19484000D01*
X12240333Y-19455429D01*
X12230809Y-19445905D01*
X5097000Y-19878000D02*
G75*
G03*
X5097000Y-19878000I-100000J0D01*
G01*
X5335571Y-19768476D02*
X5459381Y-19768476D01*
X5392714Y-19844667D01*
X5421286Y-19844667D01*
X5440333Y-19854190D01*
X5449857Y-19863714D01*
X5459381Y-19882762D01*
X5459381Y-19930381D01*
X5449857Y-19949429D01*
X5440333Y-19958952D01*
X5421286Y-19968476D01*
X5364143Y-19968476D01*
X5345095Y-19958952D01*
X5335571Y-19949429D01*
X5545095Y-19949429D02*
X5554619Y-19958952D01*
X5545095Y-19968476D01*
X5535571Y-19958952D01*
X5545095Y-19949429D01*
X5545095Y-19968476D01*
X5678428Y-19768476D02*
X5697476Y-19768476D01*
X5716524Y-19778000D01*
X5726048Y-19787524D01*
X5735571Y-19806571D01*
X5745095Y-19844667D01*
X5745095Y-19892286D01*
X5735571Y-19930381D01*
X5726048Y-19949429D01*
X5716524Y-19958952D01*
X5697476Y-19968476D01*
X5678428Y-19968476D01*
X5659381Y-19958952D01*
X5649857Y-19949429D01*
X5640333Y-19930381D01*
X5630809Y-19892286D01*
X5630809Y-19844667D01*
X5640333Y-19806571D01*
X5649857Y-19787524D01*
X5659381Y-19778000D01*
X5678428Y-19768476D01*
X5916524Y-19835143D02*
X5916524Y-19968476D01*
X5868905Y-19758952D02*
X5821286Y-19901810D01*
X5945095Y-19901810D01*
X6049857Y-19854190D02*
X6030809Y-19844667D01*
X6021286Y-19835143D01*
X6011762Y-19816095D01*
X6011762Y-19806571D01*
X6021286Y-19787524D01*
X6030809Y-19778000D01*
X6049857Y-19768476D01*
X6087952Y-19768476D01*
X6107000Y-19778000D01*
X6116524Y-19787524D01*
X6126048Y-19806571D01*
X6126048Y-19816095D01*
X6116524Y-19835143D01*
X6107000Y-19844667D01*
X6087952Y-19854190D01*
X6049857Y-19854190D01*
X6030809Y-19863714D01*
X6021286Y-19873238D01*
X6011762Y-19892286D01*
X6011762Y-19930381D01*
X6021286Y-19949429D01*
X6030809Y-19958952D01*
X6049857Y-19968476D01*
X6087952Y-19968476D01*
X6107000Y-19958952D01*
X6116524Y-19949429D01*
X6126048Y-19930381D01*
X6126048Y-19892286D01*
X6116524Y-19873238D01*
X6107000Y-19863714D01*
X6087952Y-19854190D01*
X6211762Y-19968476D02*
X6211762Y-19835143D01*
X6211762Y-19854190D02*
X6221286Y-19844667D01*
X6240333Y-19835143D01*
X6268905Y-19835143D01*
X6287952Y-19844667D01*
X6297476Y-19863714D01*
X6297476Y-19968476D01*
X6297476Y-19863714D02*
X6307000Y-19844667D01*
X6326048Y-19835143D01*
X6354619Y-19835143D01*
X6373667Y-19844667D01*
X6383190Y-19863714D01*
X6383190Y-19968476D01*
X6478428Y-19968476D02*
X6478428Y-19835143D01*
X6478428Y-19854190D02*
X6487952Y-19844667D01*
X6507000Y-19835143D01*
X6535571Y-19835143D01*
X6554619Y-19844667D01*
X6564143Y-19863714D01*
X6564143Y-19968476D01*
X6564143Y-19863714D02*
X6573667Y-19844667D01*
X6592714Y-19835143D01*
X6621286Y-19835143D01*
X6640333Y-19844667D01*
X6649857Y-19863714D01*
X6649857Y-19968476D01*
X7040333Y-19758952D02*
X6868905Y-20016095D01*
X7297476Y-19768476D02*
X7316524Y-19768476D01*
X7335571Y-19778000D01*
X7345095Y-19787524D01*
X7354619Y-19806571D01*
X7364143Y-19844667D01*
X7364143Y-19892286D01*
X7354619Y-19930381D01*
X7345095Y-19949429D01*
X7335571Y-19958952D01*
X7316524Y-19968476D01*
X7297476Y-19968476D01*
X7278428Y-19958952D01*
X7268905Y-19949429D01*
X7259381Y-19930381D01*
X7249857Y-19892286D01*
X7249857Y-19844667D01*
X7259381Y-19806571D01*
X7268905Y-19787524D01*
X7278428Y-19778000D01*
X7297476Y-19768476D01*
X7449857Y-19949429D02*
X7459381Y-19958952D01*
X7449857Y-19968476D01*
X7440333Y-19958952D01*
X7449857Y-19949429D01*
X7449857Y-19968476D01*
X7649857Y-19968476D02*
X7535571Y-19968476D01*
X7592714Y-19968476D02*
X7592714Y-19768476D01*
X7573667Y-19797048D01*
X7554619Y-19816095D01*
X7535571Y-19825619D01*
X7726048Y-19787524D02*
X7735571Y-19778000D01*
X7754619Y-19768476D01*
X7802238Y-19768476D01*
X7821286Y-19778000D01*
X7830809Y-19787524D01*
X7840333Y-19806571D01*
X7840333Y-19825619D01*
X7830809Y-19854190D01*
X7716524Y-19968476D01*
X7840333Y-19968476D01*
X7964143Y-19768476D02*
X7983190Y-19768476D01*
X8002238Y-19778000D01*
X8011762Y-19787524D01*
X8021286Y-19806571D01*
X8030809Y-19844667D01*
X8030809Y-19892286D01*
X8021286Y-19930381D01*
X8011762Y-19949429D01*
X8002238Y-19958952D01*
X7983190Y-19968476D01*
X7964143Y-19968476D01*
X7945095Y-19958952D01*
X7935571Y-19949429D01*
X7926048Y-19930381D01*
X7916524Y-19892286D01*
X7916524Y-19844667D01*
X7926048Y-19806571D01*
X7935571Y-19787524D01*
X7945095Y-19778000D01*
X7964143Y-19768476D01*
X8154619Y-19768476D02*
X8173667Y-19768476D01*
X8192714Y-19778000D01*
X8202238Y-19787524D01*
X8211762Y-19806571D01*
X8221286Y-19844667D01*
X8221286Y-19892286D01*
X8211762Y-19930381D01*
X8202238Y-19949429D01*
X8192714Y-19958952D01*
X8173667Y-19968476D01*
X8154619Y-19968476D01*
X8135571Y-19958952D01*
X8126048Y-19949429D01*
X8116524Y-19930381D01*
X8107000Y-19892286D01*
X8107000Y-19844667D01*
X8116524Y-19806571D01*
X8126048Y-19787524D01*
X8135571Y-19778000D01*
X8154619Y-19768476D01*
X8297476Y-19768476D02*
X8297476Y-19806571D01*
X8373667Y-19768476D02*
X8373667Y-19806571D01*
X8668905Y-20044667D02*
X8659381Y-20035143D01*
X8640333Y-20006571D01*
X8630810Y-19987524D01*
X8621286Y-19958952D01*
X8611762Y-19911333D01*
X8611762Y-19873238D01*
X8621286Y-19825619D01*
X8630810Y-19797048D01*
X8640333Y-19778000D01*
X8659381Y-19749429D01*
X8668905Y-19739905D01*
X8773667Y-19854190D02*
X8754619Y-19844667D01*
X8745095Y-19835143D01*
X8735571Y-19816095D01*
X8735571Y-19806571D01*
X8745095Y-19787524D01*
X8754619Y-19778000D01*
X8773667Y-19768476D01*
X8811762Y-19768476D01*
X8830810Y-19778000D01*
X8840333Y-19787524D01*
X8849857Y-19806571D01*
X8849857Y-19816095D01*
X8840333Y-19835143D01*
X8830810Y-19844667D01*
X8811762Y-19854190D01*
X8773667Y-19854190D01*
X8754619Y-19863714D01*
X8745095Y-19873238D01*
X8735571Y-19892286D01*
X8735571Y-19930381D01*
X8745095Y-19949429D01*
X8754619Y-19958952D01*
X8773667Y-19968476D01*
X8811762Y-19968476D01*
X8830810Y-19958952D01*
X8840333Y-19949429D01*
X8849857Y-19930381D01*
X8849857Y-19892286D01*
X8840333Y-19873238D01*
X8830810Y-19863714D01*
X8811762Y-19854190D01*
X9087952Y-19968476D02*
X9087952Y-19768476D01*
X9173667Y-19968476D02*
X9173667Y-19863714D01*
X9164143Y-19844667D01*
X9145095Y-19835143D01*
X9116524Y-19835143D01*
X9097476Y-19844667D01*
X9087952Y-19854190D01*
X9297476Y-19968476D02*
X9278429Y-19958952D01*
X9268905Y-19949429D01*
X9259381Y-19930381D01*
X9259381Y-19873238D01*
X9268905Y-19854190D01*
X9278429Y-19844667D01*
X9297476Y-19835143D01*
X9326048Y-19835143D01*
X9345095Y-19844667D01*
X9354619Y-19854190D01*
X9364143Y-19873238D01*
X9364143Y-19930381D01*
X9354619Y-19949429D01*
X9345095Y-19958952D01*
X9326048Y-19968476D01*
X9297476Y-19968476D01*
X9478429Y-19968476D02*
X9459381Y-19958952D01*
X9449857Y-19939905D01*
X9449857Y-19768476D01*
X9630810Y-19958952D02*
X9611762Y-19968476D01*
X9573667Y-19968476D01*
X9554619Y-19958952D01*
X9545095Y-19939905D01*
X9545095Y-19863714D01*
X9554619Y-19844667D01*
X9573667Y-19835143D01*
X9611762Y-19835143D01*
X9630810Y-19844667D01*
X9640333Y-19863714D01*
X9640333Y-19882762D01*
X9545095Y-19901810D01*
X9716524Y-19958952D02*
X9735571Y-19968476D01*
X9773667Y-19968476D01*
X9792714Y-19958952D01*
X9802238Y-19939905D01*
X9802238Y-19930381D01*
X9792714Y-19911333D01*
X9773667Y-19901810D01*
X9745095Y-19901810D01*
X9726048Y-19892286D01*
X9716524Y-19873238D01*
X9716524Y-19863714D01*
X9726048Y-19844667D01*
X9745095Y-19835143D01*
X9773667Y-19835143D01*
X9792714Y-19844667D01*
X9868905Y-20044667D02*
X9878429Y-20035143D01*
X9897476Y-20006571D01*
X9907000Y-19987524D01*
X9916524Y-19958952D01*
X9926048Y-19911333D01*
X9926048Y-19873238D01*
X9916524Y-19825619D01*
X9907000Y-19797048D01*
X9897476Y-19778000D01*
X9878429Y-19749429D01*
X9868905Y-19739905D01*
X10230810Y-20044667D02*
X10221286Y-20035143D01*
X10202238Y-20006571D01*
X10192714Y-19987524D01*
X10183190Y-19958952D01*
X10173667Y-19911333D01*
X10173667Y-19873238D01*
X10183190Y-19825619D01*
X10192714Y-19797048D01*
X10202238Y-19778000D01*
X10221286Y-19749429D01*
X10230810Y-19739905D01*
X10307000Y-19835143D02*
X10307000Y-19968476D01*
X10307000Y-19854190D02*
X10316524Y-19844667D01*
X10335571Y-19835143D01*
X10364143Y-19835143D01*
X10383190Y-19844667D01*
X10392714Y-19863714D01*
X10392714Y-19968476D01*
X10516524Y-19968476D02*
X10497476Y-19958952D01*
X10487952Y-19949429D01*
X10478429Y-19930381D01*
X10478429Y-19873238D01*
X10487952Y-19854190D01*
X10497476Y-19844667D01*
X10516524Y-19835143D01*
X10545095Y-19835143D01*
X10564143Y-19844667D01*
X10573667Y-19854190D01*
X10583190Y-19873238D01*
X10583190Y-19930381D01*
X10573667Y-19949429D01*
X10564143Y-19958952D01*
X10545095Y-19968476D01*
X10516524Y-19968476D01*
X10640333Y-19835143D02*
X10716524Y-19835143D01*
X10668905Y-19768476D02*
X10668905Y-19939905D01*
X10678429Y-19958952D01*
X10697476Y-19968476D01*
X10716524Y-19968476D01*
X10935571Y-19835143D02*
X10935571Y-20035143D01*
X10935571Y-19844667D02*
X10954619Y-19835143D01*
X10992714Y-19835143D01*
X11011762Y-19844667D01*
X11021286Y-19854190D01*
X11030810Y-19873238D01*
X11030810Y-19930381D01*
X11021286Y-19949429D01*
X11011762Y-19958952D01*
X10992714Y-19968476D01*
X10954619Y-19968476D01*
X10935571Y-19958952D01*
X11145095Y-19968476D02*
X11126048Y-19958952D01*
X11116524Y-19939905D01*
X11116524Y-19768476D01*
X11307000Y-19968476D02*
X11307000Y-19863714D01*
X11297476Y-19844667D01*
X11278428Y-19835143D01*
X11240333Y-19835143D01*
X11221286Y-19844667D01*
X11307000Y-19958952D02*
X11287952Y-19968476D01*
X11240333Y-19968476D01*
X11221286Y-19958952D01*
X11211762Y-19939905D01*
X11211762Y-19920857D01*
X11221286Y-19901810D01*
X11240333Y-19892286D01*
X11287952Y-19892286D01*
X11307000Y-19882762D01*
X11373667Y-19835143D02*
X11449857Y-19835143D01*
X11402238Y-19768476D02*
X11402238Y-19939905D01*
X11411762Y-19958952D01*
X11430809Y-19968476D01*
X11449857Y-19968476D01*
X11592714Y-19958952D02*
X11573667Y-19968476D01*
X11535571Y-19968476D01*
X11516524Y-19958952D01*
X11507000Y-19939905D01*
X11507000Y-19863714D01*
X11516524Y-19844667D01*
X11535571Y-19835143D01*
X11573667Y-19835143D01*
X11592714Y-19844667D01*
X11602238Y-19863714D01*
X11602238Y-19882762D01*
X11507000Y-19901810D01*
X11773667Y-19968476D02*
X11773667Y-19768476D01*
X11773667Y-19958952D02*
X11754619Y-19968476D01*
X11716524Y-19968476D01*
X11697476Y-19958952D01*
X11687952Y-19949429D01*
X11678428Y-19930381D01*
X11678428Y-19873238D01*
X11687952Y-19854190D01*
X11697476Y-19844667D01*
X11716524Y-19835143D01*
X11754619Y-19835143D01*
X11773667Y-19844667D01*
X11849857Y-20044667D02*
X11859381Y-20035143D01*
X11878428Y-20006571D01*
X11887952Y-19987524D01*
X11897476Y-19958952D01*
X11907000Y-19911333D01*
X11907000Y-19873238D01*
X11897476Y-19825619D01*
X11887952Y-19797048D01*
X11878428Y-19778000D01*
X11859381Y-19749429D01*
X11849857Y-19739905D01*
X4997000Y-20098000D02*
X4997000Y-20298000D01*
X4897000Y-20198000D02*
X5097000Y-20198000D01*
X5335571Y-20088476D02*
X5459381Y-20088476D01*
X5392714Y-20164667D01*
X5421286Y-20164667D01*
X5440333Y-20174190D01*
X5449857Y-20183714D01*
X5459381Y-20202762D01*
X5459381Y-20250381D01*
X5449857Y-20269429D01*
X5440333Y-20278952D01*
X5421286Y-20288476D01*
X5364143Y-20288476D01*
X5345095Y-20278952D01*
X5335571Y-20269429D01*
X5545095Y-20269429D02*
X5554619Y-20278952D01*
X5545095Y-20288476D01*
X5535571Y-20278952D01*
X5545095Y-20269429D01*
X5545095Y-20288476D01*
X5649857Y-20288476D02*
X5687952Y-20288476D01*
X5707000Y-20278952D01*
X5716524Y-20269429D01*
X5735571Y-20240857D01*
X5745095Y-20202762D01*
X5745095Y-20126571D01*
X5735571Y-20107524D01*
X5726048Y-20098000D01*
X5707000Y-20088476D01*
X5668905Y-20088476D01*
X5649857Y-20098000D01*
X5640333Y-20107524D01*
X5630809Y-20126571D01*
X5630809Y-20174190D01*
X5640333Y-20193238D01*
X5649857Y-20202762D01*
X5668905Y-20212286D01*
X5707000Y-20212286D01*
X5726048Y-20202762D01*
X5735571Y-20193238D01*
X5745095Y-20174190D01*
X5859381Y-20174190D02*
X5840333Y-20164667D01*
X5830809Y-20155143D01*
X5821286Y-20136095D01*
X5821286Y-20126571D01*
X5830809Y-20107524D01*
X5840333Y-20098000D01*
X5859381Y-20088476D01*
X5897476Y-20088476D01*
X5916524Y-20098000D01*
X5926048Y-20107524D01*
X5935571Y-20126571D01*
X5935571Y-20136095D01*
X5926048Y-20155143D01*
X5916524Y-20164667D01*
X5897476Y-20174190D01*
X5859381Y-20174190D01*
X5840333Y-20183714D01*
X5830809Y-20193238D01*
X5821286Y-20212286D01*
X5821286Y-20250381D01*
X5830809Y-20269429D01*
X5840333Y-20278952D01*
X5859381Y-20288476D01*
X5897476Y-20288476D01*
X5916524Y-20278952D01*
X5926048Y-20269429D01*
X5935571Y-20250381D01*
X5935571Y-20212286D01*
X5926048Y-20193238D01*
X5916524Y-20183714D01*
X5897476Y-20174190D01*
X6049857Y-20174190D02*
X6030809Y-20164667D01*
X6021286Y-20155143D01*
X6011762Y-20136095D01*
X6011762Y-20126571D01*
X6021286Y-20107524D01*
X6030809Y-20098000D01*
X6049857Y-20088476D01*
X6087952Y-20088476D01*
X6107000Y-20098000D01*
X6116524Y-20107524D01*
X6126048Y-20126571D01*
X6126048Y-20136095D01*
X6116524Y-20155143D01*
X6107000Y-20164667D01*
X6087952Y-20174190D01*
X6049857Y-20174190D01*
X6030809Y-20183714D01*
X6021286Y-20193238D01*
X6011762Y-20212286D01*
X6011762Y-20250381D01*
X6021286Y-20269429D01*
X6030809Y-20278952D01*
X6049857Y-20288476D01*
X6087952Y-20288476D01*
X6107000Y-20278952D01*
X6116524Y-20269429D01*
X6126048Y-20250381D01*
X6126048Y-20212286D01*
X6116524Y-20193238D01*
X6107000Y-20183714D01*
X6087952Y-20174190D01*
X6211762Y-20288476D02*
X6211762Y-20155143D01*
X6211762Y-20174190D02*
X6221286Y-20164667D01*
X6240333Y-20155143D01*
X6268905Y-20155143D01*
X6287952Y-20164667D01*
X6297476Y-20183714D01*
X6297476Y-20288476D01*
X6297476Y-20183714D02*
X6307000Y-20164667D01*
X6326048Y-20155143D01*
X6354619Y-20155143D01*
X6373667Y-20164667D01*
X6383190Y-20183714D01*
X6383190Y-20288476D01*
X6478428Y-20288476D02*
X6478428Y-20155143D01*
X6478428Y-20174190D02*
X6487952Y-20164667D01*
X6507000Y-20155143D01*
X6535571Y-20155143D01*
X6554619Y-20164667D01*
X6564143Y-20183714D01*
X6564143Y-20288476D01*
X6564143Y-20183714D02*
X6573667Y-20164667D01*
X6592714Y-20155143D01*
X6621286Y-20155143D01*
X6640333Y-20164667D01*
X6649857Y-20183714D01*
X6649857Y-20288476D01*
X7040333Y-20078952D02*
X6868905Y-20336095D01*
X7297476Y-20088476D02*
X7316524Y-20088476D01*
X7335571Y-20098000D01*
X7345095Y-20107524D01*
X7354619Y-20126571D01*
X7364143Y-20164667D01*
X7364143Y-20212286D01*
X7354619Y-20250381D01*
X7345095Y-20269429D01*
X7335571Y-20278952D01*
X7316524Y-20288476D01*
X7297476Y-20288476D01*
X7278428Y-20278952D01*
X7268905Y-20269429D01*
X7259381Y-20250381D01*
X7249857Y-20212286D01*
X7249857Y-20164667D01*
X7259381Y-20126571D01*
X7268905Y-20107524D01*
X7278428Y-20098000D01*
X7297476Y-20088476D01*
X7449857Y-20269429D02*
X7459381Y-20278952D01*
X7449857Y-20288476D01*
X7440333Y-20278952D01*
X7449857Y-20269429D01*
X7449857Y-20288476D01*
X7649857Y-20288476D02*
X7535571Y-20288476D01*
X7592714Y-20288476D02*
X7592714Y-20088476D01*
X7573667Y-20117048D01*
X7554619Y-20136095D01*
X7535571Y-20145619D01*
X7830809Y-20088476D02*
X7735571Y-20088476D01*
X7726048Y-20183714D01*
X7735571Y-20174190D01*
X7754619Y-20164667D01*
X7802238Y-20164667D01*
X7821286Y-20174190D01*
X7830809Y-20183714D01*
X7840333Y-20202762D01*
X7840333Y-20250381D01*
X7830809Y-20269429D01*
X7821286Y-20278952D01*
X7802238Y-20288476D01*
X7754619Y-20288476D01*
X7735571Y-20278952D01*
X7726048Y-20269429D01*
X7907000Y-20088476D02*
X8040333Y-20088476D01*
X7954619Y-20288476D01*
X8154619Y-20088476D02*
X8173667Y-20088476D01*
X8192714Y-20098000D01*
X8202238Y-20107524D01*
X8211762Y-20126571D01*
X8221286Y-20164667D01*
X8221286Y-20212286D01*
X8211762Y-20250381D01*
X8202238Y-20269429D01*
X8192714Y-20278952D01*
X8173667Y-20288476D01*
X8154619Y-20288476D01*
X8135571Y-20278952D01*
X8126048Y-20269429D01*
X8116524Y-20250381D01*
X8107000Y-20212286D01*
X8107000Y-20164667D01*
X8116524Y-20126571D01*
X8126048Y-20107524D01*
X8135571Y-20098000D01*
X8154619Y-20088476D01*
X8297476Y-20088476D02*
X8297476Y-20126571D01*
X8373667Y-20088476D02*
X8373667Y-20126571D01*
X8668905Y-20364667D02*
X8659381Y-20355143D01*
X8640333Y-20326571D01*
X8630810Y-20307524D01*
X8621286Y-20278952D01*
X8611762Y-20231333D01*
X8611762Y-20193238D01*
X8621286Y-20145619D01*
X8630810Y-20117048D01*
X8640333Y-20098000D01*
X8659381Y-20069429D01*
X8668905Y-20059905D01*
X8773667Y-20174190D02*
X8754619Y-20164667D01*
X8745095Y-20155143D01*
X8735571Y-20136095D01*
X8735571Y-20126571D01*
X8745095Y-20107524D01*
X8754619Y-20098000D01*
X8773667Y-20088476D01*
X8811762Y-20088476D01*
X8830810Y-20098000D01*
X8840333Y-20107524D01*
X8849857Y-20126571D01*
X8849857Y-20136095D01*
X8840333Y-20155143D01*
X8830810Y-20164667D01*
X8811762Y-20174190D01*
X8773667Y-20174190D01*
X8754619Y-20183714D01*
X8745095Y-20193238D01*
X8735571Y-20212286D01*
X8735571Y-20250381D01*
X8745095Y-20269429D01*
X8754619Y-20278952D01*
X8773667Y-20288476D01*
X8811762Y-20288476D01*
X8830810Y-20278952D01*
X8840333Y-20269429D01*
X8849857Y-20250381D01*
X8849857Y-20212286D01*
X8840333Y-20193238D01*
X8830810Y-20183714D01*
X8811762Y-20174190D01*
X9087952Y-20288476D02*
X9087952Y-20088476D01*
X9173667Y-20288476D02*
X9173667Y-20183714D01*
X9164143Y-20164667D01*
X9145095Y-20155143D01*
X9116524Y-20155143D01*
X9097476Y-20164667D01*
X9087952Y-20174190D01*
X9297476Y-20288476D02*
X9278429Y-20278952D01*
X9268905Y-20269429D01*
X9259381Y-20250381D01*
X9259381Y-20193238D01*
X9268905Y-20174190D01*
X9278429Y-20164667D01*
X9297476Y-20155143D01*
X9326048Y-20155143D01*
X9345095Y-20164667D01*
X9354619Y-20174190D01*
X9364143Y-20193238D01*
X9364143Y-20250381D01*
X9354619Y-20269429D01*
X9345095Y-20278952D01*
X9326048Y-20288476D01*
X9297476Y-20288476D01*
X9478429Y-20288476D02*
X9459381Y-20278952D01*
X9449857Y-20259905D01*
X9449857Y-20088476D01*
X9630810Y-20278952D02*
X9611762Y-20288476D01*
X9573667Y-20288476D01*
X9554619Y-20278952D01*
X9545095Y-20259905D01*
X9545095Y-20183714D01*
X9554619Y-20164667D01*
X9573667Y-20155143D01*
X9611762Y-20155143D01*
X9630810Y-20164667D01*
X9640333Y-20183714D01*
X9640333Y-20202762D01*
X9545095Y-20221810D01*
X9716524Y-20278952D02*
X9735571Y-20288476D01*
X9773667Y-20288476D01*
X9792714Y-20278952D01*
X9802238Y-20259905D01*
X9802238Y-20250381D01*
X9792714Y-20231333D01*
X9773667Y-20221810D01*
X9745095Y-20221810D01*
X9726048Y-20212286D01*
X9716524Y-20193238D01*
X9716524Y-20183714D01*
X9726048Y-20164667D01*
X9745095Y-20155143D01*
X9773667Y-20155143D01*
X9792714Y-20164667D01*
X9868905Y-20364667D02*
X9878429Y-20355143D01*
X9897476Y-20326571D01*
X9907000Y-20307524D01*
X9916524Y-20278952D01*
X9926048Y-20231333D01*
X9926048Y-20193238D01*
X9916524Y-20145619D01*
X9907000Y-20117048D01*
X9897476Y-20098000D01*
X9878429Y-20069429D01*
X9868905Y-20059905D01*
X10230810Y-20364667D02*
X10221286Y-20355143D01*
X10202238Y-20326571D01*
X10192714Y-20307524D01*
X10183190Y-20278952D01*
X10173667Y-20231333D01*
X10173667Y-20193238D01*
X10183190Y-20145619D01*
X10192714Y-20117048D01*
X10202238Y-20098000D01*
X10221286Y-20069429D01*
X10230810Y-20059905D01*
X10307000Y-20155143D02*
X10307000Y-20288476D01*
X10307000Y-20174190D02*
X10316524Y-20164667D01*
X10335571Y-20155143D01*
X10364143Y-20155143D01*
X10383190Y-20164667D01*
X10392714Y-20183714D01*
X10392714Y-20288476D01*
X10516524Y-20288476D02*
X10497476Y-20278952D01*
X10487952Y-20269429D01*
X10478429Y-20250381D01*
X10478429Y-20193238D01*
X10487952Y-20174190D01*
X10497476Y-20164667D01*
X10516524Y-20155143D01*
X10545095Y-20155143D01*
X10564143Y-20164667D01*
X10573667Y-20174190D01*
X10583190Y-20193238D01*
X10583190Y-20250381D01*
X10573667Y-20269429D01*
X10564143Y-20278952D01*
X10545095Y-20288476D01*
X10516524Y-20288476D01*
X10640333Y-20155143D02*
X10716524Y-20155143D01*
X10668905Y-20088476D02*
X10668905Y-20259905D01*
X10678429Y-20278952D01*
X10697476Y-20288476D01*
X10716524Y-20288476D01*
X10935571Y-20155143D02*
X10935571Y-20355143D01*
X10935571Y-20164667D02*
X10954619Y-20155143D01*
X10992714Y-20155143D01*
X11011762Y-20164667D01*
X11021286Y-20174190D01*
X11030810Y-20193238D01*
X11030810Y-20250381D01*
X11021286Y-20269429D01*
X11011762Y-20278952D01*
X10992714Y-20288476D01*
X10954619Y-20288476D01*
X10935571Y-20278952D01*
X11145095Y-20288476D02*
X11126048Y-20278952D01*
X11116524Y-20259905D01*
X11116524Y-20088476D01*
X11307000Y-20288476D02*
X11307000Y-20183714D01*
X11297476Y-20164667D01*
X11278428Y-20155143D01*
X11240333Y-20155143D01*
X11221286Y-20164667D01*
X11307000Y-20278952D02*
X11287952Y-20288476D01*
X11240333Y-20288476D01*
X11221286Y-20278952D01*
X11211762Y-20259905D01*
X11211762Y-20240857D01*
X11221286Y-20221810D01*
X11240333Y-20212286D01*
X11287952Y-20212286D01*
X11307000Y-20202762D01*
X11373667Y-20155143D02*
X11449857Y-20155143D01*
X11402238Y-20088476D02*
X11402238Y-20259905D01*
X11411762Y-20278952D01*
X11430809Y-20288476D01*
X11449857Y-20288476D01*
X11592714Y-20278952D02*
X11573667Y-20288476D01*
X11535571Y-20288476D01*
X11516524Y-20278952D01*
X11507000Y-20259905D01*
X11507000Y-20183714D01*
X11516524Y-20164667D01*
X11535571Y-20155143D01*
X11573667Y-20155143D01*
X11592714Y-20164667D01*
X11602238Y-20183714D01*
X11602238Y-20202762D01*
X11507000Y-20221810D01*
X11773667Y-20288476D02*
X11773667Y-20088476D01*
X11773667Y-20278952D02*
X11754619Y-20288476D01*
X11716524Y-20288476D01*
X11697476Y-20278952D01*
X11687952Y-20269429D01*
X11678428Y-20250381D01*
X11678428Y-20193238D01*
X11687952Y-20174190D01*
X11697476Y-20164667D01*
X11716524Y-20155143D01*
X11754619Y-20155143D01*
X11773667Y-20164667D01*
X11849857Y-20364667D02*
X11859381Y-20355143D01*
X11878428Y-20326571D01*
X11887952Y-20307524D01*
X11897476Y-20278952D01*
X11907000Y-20231333D01*
X11907000Y-20193238D01*
X11897476Y-20145619D01*
X11887952Y-20117048D01*
X11878428Y-20098000D01*
X11859381Y-20069429D01*
X11849857Y-20059905D01*
M02*
