G04 #@! TF.GenerationSoftware,KiCad,Pcbnew,(6.0.0)*
G04 #@! TF.CreationDate,2024-08-25T19:28:41-07:00*
G04 #@! TF.ProjectId,stekeeb65_analog,7374656b-6565-4623-9635-5f616e616c6f,rev?*
G04 #@! TF.SameCoordinates,Original*
G04 #@! TF.FileFunction,Profile,NP*
%FSLAX46Y46*%
G04 Gerber Fmt 4.6, Leading zero omitted, Abs format (unit mm)*
G04 Created by KiCad (PCBNEW (6.0.0)) date 2024-08-25 19:28:41*
%MOMM*%
%LPD*%
G01*
G04 APERTURE LIST*
G04 #@! TA.AperFunction,Profile*
%ADD10C,0.100000*%
G04 #@! TD*
G04 #@! TA.AperFunction,Profile*
%ADD11C,0.120000*%
G04 #@! TD*
G04 APERTURE END LIST*
D10*
X52270000Y-96250000D02*
G75*
G03*
X51020000Y-97500000I2J-1250002D01*
G01*
X52270000Y-189390000D02*
X351770000Y-189390000D01*
X351770000Y-96250000D02*
X52270000Y-96250000D01*
X51020000Y-97500000D02*
X51020000Y-188140000D01*
X353020000Y-97500000D02*
G75*
G03*
X351770000Y-96250000I-1250002J-2D01*
G01*
X51020000Y-188140000D02*
G75*
G03*
X52270000Y-189390000I1250002J2D01*
G01*
X351770000Y-189390000D02*
G75*
G03*
X353020000Y-188140000I-2J1250002D01*
G01*
X353020000Y-188140000D02*
X353020000Y-97500000D01*
D11*
X263062500Y-138975000D02*
X263062500Y-135975000D01*
X263062500Y-135975000D02*
X266462500Y-135975000D01*
X266462500Y-138975000D02*
X263062500Y-138975000D01*
X266462500Y-135975000D02*
X266462500Y-138975000D01*
X328375000Y-174075000D02*
X328375000Y-177075000D01*
X324975000Y-174075000D02*
X328375000Y-174075000D01*
X324975000Y-177075000D02*
X324975000Y-174075000D01*
X328375000Y-177075000D02*
X324975000Y-177075000D01*
X248775000Y-177075000D02*
X248775000Y-174075000D01*
X252175000Y-177075000D02*
X248775000Y-177075000D01*
X248775000Y-174075000D02*
X252175000Y-174075000D01*
X252175000Y-174075000D02*
X252175000Y-177075000D01*
X242650000Y-119925000D02*
X239250000Y-119925000D01*
X242650000Y-116925000D02*
X242650000Y-119925000D01*
X239250000Y-116925000D02*
X242650000Y-116925000D01*
X239250000Y-119925000D02*
X239250000Y-116925000D01*
X108281200Y-177075000D02*
X108281200Y-174075000D01*
X111681200Y-177075000D02*
X108281200Y-177075000D01*
X108281200Y-174075000D02*
X111681200Y-174075000D01*
X111681200Y-174075000D02*
X111681200Y-177075000D01*
X261700000Y-116925000D02*
X261700000Y-119925000D01*
X258300000Y-119925000D02*
X258300000Y-116925000D01*
X258300000Y-116925000D02*
X261700000Y-116925000D01*
X261700000Y-119925000D02*
X258300000Y-119925000D01*
X118825000Y-100875000D02*
X115425000Y-100875000D01*
X115425000Y-97875000D02*
X118825000Y-97875000D01*
X115425000Y-100875000D02*
X115425000Y-97875000D01*
X118825000Y-97875000D02*
X118825000Y-100875000D01*
X128350000Y-119925000D02*
X124950000Y-119925000D01*
X124950000Y-119925000D02*
X124950000Y-116925000D01*
X128350000Y-116925000D02*
X128350000Y-119925000D01*
X124950000Y-116925000D02*
X128350000Y-116925000D01*
X147400000Y-119925000D02*
X144000000Y-119925000D01*
X144000000Y-116925000D02*
X147400000Y-116925000D01*
X144000000Y-119925000D02*
X144000000Y-116925000D01*
X147400000Y-116925000D02*
X147400000Y-119925000D01*
X114062500Y-138975000D02*
X110662500Y-138975000D01*
X114062500Y-135975000D02*
X114062500Y-138975000D01*
X110662500Y-135975000D02*
X114062500Y-135975000D01*
X110662500Y-138975000D02*
X110662500Y-135975000D01*
X347425000Y-174075000D02*
X347425000Y-177075000D01*
X344025000Y-177075000D02*
X344025000Y-174075000D01*
X344025000Y-174075000D02*
X347425000Y-174075000D01*
X347425000Y-177075000D02*
X344025000Y-177075000D01*
X282112500Y-135975000D02*
X285512500Y-135975000D01*
X285512500Y-135975000D02*
X285512500Y-138975000D01*
X285512500Y-138975000D02*
X282112500Y-138975000D01*
X282112500Y-138975000D02*
X282112500Y-135975000D01*
X247412500Y-138975000D02*
X244012500Y-138975000D01*
X244012500Y-135975000D02*
X247412500Y-135975000D01*
X244012500Y-138975000D02*
X244012500Y-135975000D01*
X247412500Y-135975000D02*
X247412500Y-138975000D01*
X209312500Y-135975000D02*
X209312500Y-138975000D01*
X205912500Y-135975000D02*
X209312500Y-135975000D01*
X209312500Y-138975000D02*
X205912500Y-138975000D01*
X205912500Y-138975000D02*
X205912500Y-135975000D01*
X253537500Y-155025000D02*
X256937500Y-155025000D01*
X256937500Y-155025000D02*
X256937500Y-158025000D01*
X256937500Y-158025000D02*
X253537500Y-158025000D01*
X253537500Y-158025000D02*
X253537500Y-155025000D01*
X347425000Y-116925000D02*
X347425000Y-119925000D01*
X344025000Y-116925000D02*
X347425000Y-116925000D01*
X347425000Y-119925000D02*
X344025000Y-119925000D01*
X344025000Y-119925000D02*
X344025000Y-116925000D01*
X344025000Y-158025000D02*
X344025000Y-155025000D01*
X347425000Y-155025000D02*
X347425000Y-158025000D01*
X344025000Y-155025000D02*
X347425000Y-155025000D01*
X347425000Y-158025000D02*
X344025000Y-158025000D01*
X272587500Y-158025000D02*
X272587500Y-155025000D01*
X272587500Y-155025000D02*
X275987500Y-155025000D01*
X275987500Y-158025000D02*
X272587500Y-158025000D01*
X275987500Y-155025000D02*
X275987500Y-158025000D01*
X180737500Y-155025000D02*
X180737500Y-158025000D01*
X180737500Y-158025000D02*
X177337500Y-158025000D01*
X177337500Y-155025000D02*
X180737500Y-155025000D01*
X177337500Y-158025000D02*
X177337500Y-155025000D01*
X171212500Y-138975000D02*
X167812500Y-138975000D01*
X171212500Y-135975000D02*
X171212500Y-138975000D01*
X167812500Y-135975000D02*
X171212500Y-135975000D01*
X167812500Y-138975000D02*
X167812500Y-135975000D01*
X156925000Y-100875000D02*
X153525000Y-100875000D01*
X156925000Y-97875000D02*
X156925000Y-100875000D01*
X153525000Y-100875000D02*
X153525000Y-97875000D01*
X153525000Y-97875000D02*
X156925000Y-97875000D01*
X96375000Y-97875000D02*
X99775000Y-97875000D01*
X99775000Y-100875000D02*
X96375000Y-100875000D01*
X99775000Y-97875000D02*
X99775000Y-100875000D01*
X96375000Y-100875000D02*
X96375000Y-97875000D01*
X224962500Y-135975000D02*
X228362500Y-135975000D01*
X224962500Y-138975000D02*
X224962500Y-135975000D01*
X228362500Y-135975000D02*
X228362500Y-138975000D01*
X228362500Y-138975000D02*
X224962500Y-138975000D01*
X271225000Y-177075000D02*
X267825000Y-177075000D01*
X267825000Y-174075000D02*
X271225000Y-174075000D01*
X267825000Y-177075000D02*
X267825000Y-174075000D01*
X271225000Y-174075000D02*
X271225000Y-177075000D01*
X323612500Y-116925000D02*
X323612500Y-119925000D01*
X320212500Y-116925000D02*
X323612500Y-116925000D01*
X320212500Y-119925000D02*
X320212500Y-116925000D01*
X323612500Y-119925000D02*
X320212500Y-119925000D01*
X161687500Y-155025000D02*
X161687500Y-158025000D01*
X158287500Y-155025000D02*
X161687500Y-155025000D01*
X158287500Y-158025000D02*
X158287500Y-155025000D01*
X161687500Y-158025000D02*
X158287500Y-158025000D01*
X163050000Y-119925000D02*
X163050000Y-116925000D01*
X166450000Y-119925000D02*
X163050000Y-119925000D01*
X163050000Y-116925000D02*
X166450000Y-116925000D01*
X166450000Y-116925000D02*
X166450000Y-119925000D01*
X298781200Y-155025000D02*
X302181200Y-155025000D01*
X298781200Y-158025000D02*
X298781200Y-155025000D01*
X302181200Y-158025000D02*
X298781200Y-158025000D01*
X302181200Y-155025000D02*
X302181200Y-158025000D01*
X70181200Y-158025000D02*
X70181200Y-155025000D01*
X73581200Y-155025000D02*
X73581200Y-158025000D01*
X73581200Y-158025000D02*
X70181200Y-158025000D01*
X70181200Y-155025000D02*
X73581200Y-155025000D01*
X80725000Y-100875000D02*
X77325000Y-100875000D01*
X80725000Y-97875000D02*
X80725000Y-100875000D01*
X77325000Y-97875000D02*
X80725000Y-97875000D01*
X77325000Y-100875000D02*
X77325000Y-97875000D01*
X104537500Y-158025000D02*
X101137500Y-158025000D01*
X101137500Y-155025000D02*
X104537500Y-155025000D01*
X104537500Y-155025000D02*
X104537500Y-158025000D01*
X101137500Y-158025000D02*
X101137500Y-155025000D01*
X315450000Y-97875000D02*
X318850000Y-97875000D01*
X318850000Y-97875000D02*
X318850000Y-100875000D01*
X315450000Y-100875000D02*
X315450000Y-97875000D01*
X318850000Y-100875000D02*
X315450000Y-100875000D01*
X175975000Y-97875000D02*
X175975000Y-100875000D01*
X172575000Y-100875000D02*
X172575000Y-97875000D01*
X172575000Y-97875000D02*
X175975000Y-97875000D01*
X175975000Y-100875000D02*
X172575000Y-100875000D01*
X152162500Y-138975000D02*
X148762500Y-138975000D01*
X148762500Y-135975000D02*
X152162500Y-135975000D01*
X148762500Y-138975000D02*
X148762500Y-135975000D01*
X152162500Y-135975000D02*
X152162500Y-138975000D01*
X305925000Y-174075000D02*
X309325000Y-174075000D01*
X309325000Y-174075000D02*
X309325000Y-177075000D01*
X305925000Y-177075000D02*
X305925000Y-174075000D01*
X309325000Y-177075000D02*
X305925000Y-177075000D01*
X201150000Y-119925000D02*
X201150000Y-116925000D01*
X201150000Y-116925000D02*
X204550000Y-116925000D01*
X204550000Y-119925000D02*
X201150000Y-119925000D01*
X204550000Y-116925000D02*
X204550000Y-119925000D01*
X91612500Y-138975000D02*
X91612500Y-135975000D01*
X95012500Y-135975000D02*
X95012500Y-138975000D01*
X95012500Y-138975000D02*
X91612500Y-138975000D01*
X91612500Y-135975000D02*
X95012500Y-135975000D01*
X286875000Y-97875000D02*
X290275000Y-97875000D01*
X286875000Y-100875000D02*
X286875000Y-97875000D01*
X290275000Y-97875000D02*
X290275000Y-100875000D01*
X290275000Y-100875000D02*
X286875000Y-100875000D01*
X182100000Y-119925000D02*
X182100000Y-116925000D01*
X185500000Y-116925000D02*
X185500000Y-119925000D01*
X185500000Y-119925000D02*
X182100000Y-119925000D01*
X182100000Y-116925000D02*
X185500000Y-116925000D01*
X214075000Y-97875000D02*
X214075000Y-100875000D01*
X210675000Y-97875000D02*
X214075000Y-97875000D01*
X210675000Y-100875000D02*
X210675000Y-97875000D01*
X214075000Y-100875000D02*
X210675000Y-100875000D01*
X299800000Y-116925000D02*
X299800000Y-119925000D01*
X296400000Y-119925000D02*
X296400000Y-116925000D01*
X296400000Y-116925000D02*
X299800000Y-116925000D01*
X299800000Y-119925000D02*
X296400000Y-119925000D01*
X84468800Y-174075000D02*
X87868800Y-174075000D01*
X87868800Y-174075000D02*
X87868800Y-177075000D01*
X84468800Y-177075000D02*
X84468800Y-174075000D01*
X87868800Y-177075000D02*
X84468800Y-177075000D01*
X120187500Y-155025000D02*
X123587500Y-155025000D01*
X123587500Y-158025000D02*
X120187500Y-158025000D01*
X123587500Y-155025000D02*
X123587500Y-158025000D01*
X120187500Y-158025000D02*
X120187500Y-155025000D01*
X179718800Y-174075000D02*
X183118800Y-174075000D01*
X183118800Y-177075000D02*
X179718800Y-177075000D01*
X179718800Y-177075000D02*
X179718800Y-174075000D01*
X183118800Y-174075000D02*
X183118800Y-177075000D01*
X234487500Y-158025000D02*
X234487500Y-155025000D01*
X237887500Y-155025000D02*
X237887500Y-158025000D01*
X237887500Y-158025000D02*
X234487500Y-158025000D01*
X234487500Y-155025000D02*
X237887500Y-155025000D01*
X109300000Y-116925000D02*
X109300000Y-119925000D01*
X109300000Y-119925000D02*
X105900000Y-119925000D01*
X105900000Y-119925000D02*
X105900000Y-116925000D01*
X105900000Y-116925000D02*
X109300000Y-116925000D01*
X290275000Y-174075000D02*
X290275000Y-177075000D01*
X286875000Y-174075000D02*
X290275000Y-174075000D01*
X286875000Y-177075000D02*
X286875000Y-174075000D01*
X290275000Y-177075000D02*
X286875000Y-177075000D01*
X68818700Y-138975000D02*
X65418700Y-138975000D01*
X68818700Y-135975000D02*
X68818700Y-138975000D01*
X65418700Y-135975000D02*
X68818700Y-135975000D01*
X65418700Y-138975000D02*
X65418700Y-135975000D01*
X186862500Y-138975000D02*
X186862500Y-135975000D01*
X190262500Y-135975000D02*
X190262500Y-138975000D01*
X190262500Y-138975000D02*
X186862500Y-138975000D01*
X186862500Y-135975000D02*
X190262500Y-135975000D01*
X142637500Y-155025000D02*
X142637500Y-158025000D01*
X142637500Y-158025000D02*
X139237500Y-158025000D01*
X139237500Y-155025000D02*
X142637500Y-155025000D01*
X139237500Y-158025000D02*
X139237500Y-155025000D01*
X60656200Y-177075000D02*
X60656200Y-174075000D01*
X60656200Y-174075000D02*
X64056200Y-174075000D01*
X64056200Y-174075000D02*
X64056200Y-177075000D01*
X64056200Y-177075000D02*
X60656200Y-177075000D01*
X316468800Y-138975000D02*
X313068800Y-138975000D01*
X316468800Y-135975000D02*
X316468800Y-138975000D01*
X313068800Y-135975000D02*
X316468800Y-135975000D01*
X313068800Y-138975000D02*
X313068800Y-135975000D01*
X252175000Y-100875000D02*
X248775000Y-100875000D01*
X248775000Y-100875000D02*
X248775000Y-97875000D01*
X248775000Y-97875000D02*
X252175000Y-97875000D01*
X252175000Y-97875000D02*
X252175000Y-100875000D01*
X344025000Y-97875000D02*
X347425000Y-97875000D01*
X347425000Y-100875000D02*
X344025000Y-100875000D01*
X344025000Y-100875000D02*
X344025000Y-97875000D01*
X347425000Y-97875000D02*
X347425000Y-100875000D01*
X129712500Y-138975000D02*
X129712500Y-135975000D01*
X133112500Y-138975000D02*
X129712500Y-138975000D01*
X133112500Y-135975000D02*
X133112500Y-138975000D01*
X129712500Y-135975000D02*
X133112500Y-135975000D01*
X90250000Y-116925000D02*
X90250000Y-119925000D01*
X86850000Y-119925000D02*
X86850000Y-116925000D01*
X90250000Y-119925000D02*
X86850000Y-119925000D01*
X86850000Y-116925000D02*
X90250000Y-116925000D01*
X271225000Y-100875000D02*
X267825000Y-100875000D01*
X267825000Y-100875000D02*
X267825000Y-97875000D01*
X271225000Y-97875000D02*
X271225000Y-100875000D01*
X267825000Y-97875000D02*
X271225000Y-97875000D01*
X280750000Y-116925000D02*
X280750000Y-119925000D01*
X277350000Y-119925000D02*
X277350000Y-116925000D01*
X277350000Y-116925000D02*
X280750000Y-116925000D01*
X280750000Y-119925000D02*
X277350000Y-119925000D01*
X137875000Y-97875000D02*
X137875000Y-100875000D01*
X137875000Y-100875000D02*
X134475000Y-100875000D01*
X134475000Y-100875000D02*
X134475000Y-97875000D01*
X134475000Y-97875000D02*
X137875000Y-97875000D01*
X344025000Y-135975000D02*
X347425000Y-135975000D01*
X344025000Y-138975000D02*
X344025000Y-135975000D01*
X347425000Y-138975000D02*
X344025000Y-138975000D01*
X347425000Y-135975000D02*
X347425000Y-138975000D01*
X215437500Y-155025000D02*
X218837500Y-155025000D01*
X218837500Y-158025000D02*
X215437500Y-158025000D01*
X218837500Y-155025000D02*
X218837500Y-158025000D01*
X215437500Y-158025000D02*
X215437500Y-155025000D01*
X220200000Y-119925000D02*
X220200000Y-116925000D01*
X223600000Y-116925000D02*
X223600000Y-119925000D01*
X223600000Y-119925000D02*
X220200000Y-119925000D01*
X220200000Y-116925000D02*
X223600000Y-116925000D01*
X66437500Y-119925000D02*
X63037500Y-119925000D01*
X63037500Y-116925000D02*
X66437500Y-116925000D01*
X66437500Y-116925000D02*
X66437500Y-119925000D01*
X63037500Y-119925000D02*
X63037500Y-116925000D01*
X199787500Y-155025000D02*
X199787500Y-158025000D01*
X199787500Y-158025000D02*
X196387500Y-158025000D01*
X196387500Y-155025000D02*
X199787500Y-155025000D01*
X196387500Y-158025000D02*
X196387500Y-155025000D01*
X58275000Y-97875000D02*
X61675000Y-97875000D01*
X61675000Y-100875000D02*
X58275000Y-100875000D01*
X58275000Y-100875000D02*
X58275000Y-97875000D01*
X61675000Y-97875000D02*
X61675000Y-100875000D01*
X191625000Y-97875000D02*
X195025000Y-97875000D01*
X195025000Y-100875000D02*
X191625000Y-100875000D01*
X195025000Y-97875000D02*
X195025000Y-100875000D01*
X191625000Y-100875000D02*
X191625000Y-97875000D01*
X229725000Y-97875000D02*
X233125000Y-97875000D01*
X229725000Y-100875000D02*
X229725000Y-97875000D01*
X233125000Y-97875000D02*
X233125000Y-100875000D01*
X233125000Y-100875000D02*
X229725000Y-100875000D01*
X328375000Y-158025000D02*
X324975000Y-158025000D01*
X324975000Y-158025000D02*
X324975000Y-155025000D01*
X328375000Y-155025000D02*
X328375000Y-158025000D01*
X324975000Y-155025000D02*
X328375000Y-155025000D01*
M02*
