M48
; DRILL file {KiCad (6.0.0)} date Sun Aug 25 19:28:50 2024
; FORMAT={-:-/ absolute / metric / decimal}
; #@! TF.CreationDate,2024-08-25T19:28:50-07:00
; #@! TF.GenerationSoftware,Kicad,Pcbnew,(6.0.0)
; #@! TF.FileFunction,Plated,1,2,PTH
FMAT,2
METRIC
; #@! TA.AperFunction,Plated,PTH,ViaDrill
T1C0.300
; #@! TA.AperFunction,Plated,PTH,ComponentDrill
T2C0.350
; #@! TA.AperFunction,Plated,PTH,ComponentDrill
T3C1.000
; #@! TA.AperFunction,Plated,PTH,ComponentDrill
T4C2.200
%
G90
G05
T1
X55.25Y-120.7
X55.35Y-102.65
X55.86Y-101.45
X57.15Y-97.4
X57.525Y-113.825
X58.25Y-101.45
X58.666Y-175.384
X59.975Y-103.375
X62.725Y-106.237
X62.95Y-149.35
X64.16Y-98.63
X64.737Y-122.425
X65.106Y-182.438
X66.05Y-155.95
X66.55Y-149.25
X66.82Y-174.84
X66.94Y-172.77
X67.487Y-125.287
X67.65Y-128.55
X68.11Y-176.33
X69.52Y-173.41
X69.54Y-176.34
X69.75Y-119.2
X69.81Y-135.56
X69.869Y-144.338
X69.97Y-172.73
X70.15Y-116.95
X70.15Y-127.35
X70.4Y-134.84
X71.05Y-122.3
X71.12Y-138.22
X71.16Y-134.04
X71.2Y-140.4
X71.31Y-173.41
X71.8Y-116.33
X72.0Y-172.73
X72.2Y-122.95
X72.65Y-119.18
X72.85Y-120.85
X74.19Y-116.32
X74.25Y-122.65
X74.55Y-139.8
X74.631Y-163.387
X74.855Y-126.795
X74.885Y-122.146
X75.04Y-115.66
X75.3Y-100.15
X75.733Y-120.84
X76.09Y-155.71
X76.11Y-153.06
X76.3Y-117.05
X77.1Y-125.5
X77.5Y-118.65
X78.05Y-119.25
X78.65Y-118.65
X79.3Y-127.55
X80.05Y-134.0
X81.775Y-106.237
X82.688Y-130.37
X83.23Y-98.63
X83.719Y-176.325
X84.232Y-135.54
X84.74Y-134.9
X87.1Y-136.85
X87.95Y-133.6
X88.0Y-138.3
X88.55Y-122.425
X88.919Y-182.438
X89.5Y-138.25
X90.01Y-172.73
X90.04Y-174.8
X91.3Y-125.287
X91.63Y-172.69
X92.04Y-173.41
X92.04Y-177.59
X92.44Y-115.66
X92.44Y-117.64
X93.0Y-100.1
X93.31Y-177.59
X93.4Y-102.75
X93.423Y-173.41
X93.673Y-172.661
X93.95Y-102.1
X95.2Y-102.1
X95.656Y-102.769
X96.062Y-144.338
X97.27Y-136.72
X98.45Y-127.15
X98.45Y-128.33
X98.45Y-129.65
X98.45Y-131.05
X98.45Y-132.5
X98.77Y-134.88
X98.9Y-139.55
X98.9Y-157.25
X99.05Y-126.55
X99.05Y-128.95
X99.05Y-130.4
X99.05Y-131.8
X99.06Y-134.1
X99.1Y-127.745
X99.9Y-118.85
X100.25Y-126.55
X100.25Y-127.75
X100.25Y-128.95
X100.25Y-130.4
X100.25Y-131.8
X100.34Y-134.88
X100.39Y-139.55
X100.419Y-134.088
X100.825Y-106.237
X100.95Y-127.15
X100.95Y-128.35
X100.95Y-129.65
X100.95Y-131.05
X100.95Y-132.5
X102.4Y-114.3
X102.44Y-98.61
X104.0Y-122.25
X105.587Y-163.387
X106.8Y-153.97
X106.8Y-155.78
X107.531Y-176.325
X107.9Y-160.25
X108.55Y-138.25
X109.05Y-114.375
X110.35Y-125.287
X111.0Y-160.65
X111.73Y-117.75
X112.09Y-115.66
X112.46Y-116.32
X112.6Y-109.95
X112.7Y-100.1
X112.731Y-182.438
X112.8Y-157.05
X113.35Y-153.3
X113.45Y-120.19
X113.55Y-114.5
X114.02Y-174.84
X114.03Y-172.66
X114.15Y-153.3
X114.85Y-127.503
X114.85Y-128.95
X114.85Y-130.25
X114.85Y-131.65
X114.95Y-153.3
X115.112Y-144.338
X115.51Y-177.6
X115.55Y-126.85
X115.55Y-128.2
X115.55Y-129.55
X115.55Y-130.95
X115.64Y-173.41
X116.55Y-132.3
X116.9Y-136.59
X117.01Y-173.4
X117.34Y-134.21
X117.55Y-133.0
X117.65Y-126.85
X117.65Y-128.2
X117.65Y-129.55
X117.65Y-130.95
X117.65Y-172.65
X118.08Y-134.88
X118.15Y-127.5
X118.15Y-128.95
X118.15Y-130.25
X118.33Y-177.64
X118.35Y-112.35
X118.5Y-131.65
X119.35Y-120.5
X119.4Y-132.3
X119.55Y-112.75
X119.875Y-106.237
X120.05Y-111.3
X120.15Y-119.0
X120.2Y-133.0
X120.75Y-118.3
X121.14Y-134.21
X121.4Y-102.45
X121.61Y-116.33
X121.7Y-183.4
X121.72Y-98.62
X121.91Y-134.87
X122.03Y-115.66
X122.35Y-184.05
X122.6Y-110.05
X122.76Y-139.57
X123.0Y-119.15
X123.2Y-184.7
X123.4Y-102.45
X124.25Y-187.3
X124.3Y-181.85
X124.61Y-139.57
X124.637Y-163.387
X125.0Y-134.9
X125.71Y-134.21
X125.87Y-153.95
X125.89Y-155.75
X126.42Y-139.57
X127.45Y-107.35
X127.45Y-110.1
X127.8Y-138.25
X128.075Y-187.8
X128.35Y-158.38
X129.15Y-154.55
X129.4Y-125.287
X129.9Y-154.0
X130.4Y-159.65
X130.4Y-164.75
X130.41Y-115.66
X130.43Y-117.67
X130.6Y-122.2
X131.15Y-159.65
X131.15Y-164.75
X131.9Y-160.2
X131.9Y-164.75
X132.2Y-100.1
X132.7Y-159.65
X132.7Y-164.75
X132.85Y-183.55
X133.45Y-159.65
X133.45Y-164.75
X134.1Y-114.45
X134.1Y-122.2
X134.162Y-144.338
X134.2Y-159.65
X134.2Y-164.75
X134.45Y-187.75
X135.56Y-134.22
X135.56Y-136.74
X135.9Y-167.8
X136.75Y-182.9
X136.95Y-164.7
X136.95Y-166.65
X137.0Y-157.25
X137.1Y-159.65
X138.4Y-175.9
X138.925Y-106.237
X139.55Y-169.55
X140.39Y-98.64
X141.8Y-119.15
X143.688Y-163.387
X143.812Y-171.4
X143.812Y-173.1
X144.7Y-160.15
X144.86Y-153.95
X144.88Y-155.78
X144.96Y-157.33
X145.287Y-168.2
X146.575Y-165.65
X146.75Y-138.2
X147.012Y-168.2
X147.012Y-169.8
X147.75Y-186.35
X147.9Y-183.7
X148.025Y-163.6
X148.45Y-125.287
X148.9Y-163.425
X149.099Y-185.599
X149.1Y-183.95
X149.21Y-154.57
X149.34Y-115.66
X149.37Y-117.66
X149.96Y-153.98
X150.0Y-165.175
X150.35Y-184.4
X150.4Y-169.5
X150.75Y-183.55
X151.1Y-182.7
X151.2Y-100.15
X151.35Y-160.1
X152.05Y-184.4
X152.45Y-157.6
X152.6Y-164.825
X152.6Y-166.075
X152.65Y-183.6
X152.75Y-150.012
X153.15Y-182.5
X153.213Y-144.338
X154.55Y-183.35
X154.67Y-155.07
X154.76Y-134.22
X154.76Y-136.74
X155.3Y-152.35
X155.8Y-147.9
X156.15Y-156.95
X156.625Y-177.375
X157.45Y-184.425
X157.537Y-171.2
X157.537Y-172.8
X157.537Y-174.45
X157.975Y-106.237
X158.25Y-121.65
X159.1Y-175.7
X159.27Y-154.37
X159.49Y-98.62
X159.53Y-153.55
X159.8Y-176.3
X160.55Y-119.15
X160.6Y-176.9
X162.25Y-147.95
X162.45Y-110.45
X162.45Y-111.65
X162.45Y-112.85
X162.737Y-163.387
X162.9Y-150.15
X163.096Y-147.953
X163.6Y-149.55
X164.8Y-172.987
X165.16Y-154.43
X165.85Y-138.2
X165.91Y-158.46
X166.6Y-160.45
X166.914Y-153.787
X167.5Y-125.287
X167.6Y-172.987
X167.6Y-174.812
X168.54Y-117.68
X168.81Y-111.66
X168.825Y-161.525
X169.1Y-158.35
X170.15Y-100.1
X170.7Y-184.75
X172.262Y-144.338
X172.97Y-185.04
X173.0Y-115.95
X173.03Y-186.24
X173.2Y-121.65
X173.71Y-134.22
X173.72Y-136.73
X174.25Y-178.4
X174.7Y-114.4
X174.75Y-166.75
X174.75Y-167.55
X174.75Y-168.3
X174.75Y-169.1
X174.75Y-169.9
X174.75Y-170.7
X174.75Y-171.5
X174.75Y-172.3
X174.75Y-173.1
X174.75Y-173.9
X175.1Y-157.3
X176.27Y-174.08
X176.27Y-174.95
X176.5Y-166.15
X177.025Y-106.237
X177.25Y-121.1
X177.4Y-173.5
X177.51Y-174.94
X177.65Y-166.1
X177.95Y-178.6
X178.4Y-98.63
X178.969Y-176.325
X179.35Y-172.4
X179.55Y-119.2
X179.8Y-171.8
X180.45Y-171.2
X181.05Y-172.4
X181.4Y-170.45
X181.65Y-171.8
X181.787Y-163.387
X181.9Y-169.75
X182.25Y-171.2
X182.75Y-169.1
X182.93Y-155.77
X182.95Y-153.79
X183.05Y-170.45
X183.35Y-168.5
X183.7Y-169.75
X184.0Y-167.65
X184.169Y-180.713
X184.169Y-182.438
X184.35Y-169.1
X184.8Y-138.2
X185.0Y-168.5
X185.8Y-167.65
X186.55Y-125.287
X187.4Y-152.575
X187.55Y-160.35
X187.77Y-117.68
X187.79Y-115.66
X188.275Y-173.3
X188.275Y-175.525
X188.6Y-121.85
X188.775Y-180.425
X189.55Y-100.15
X189.75Y-114.4
X190.14Y-120.5
X190.95Y-116.37
X191.312Y-144.338
X191.71Y-120.5
X191.925Y-184.15
X192.69Y-134.25
X192.69Y-136.72
X192.82Y-116.89
X192.85Y-180.3
X192.9Y-111.0
X194.15Y-138.2
X194.15Y-157.3
X194.875Y-180.3
X195.45Y-113.5
X196.075Y-104.512
X196.075Y-106.237
X196.4Y-113.55
X197.62Y-98.64
X197.65Y-173.9
X197.7Y-138.25
X197.762Y-170.15
X197.762Y-171.7
X197.825Y-119.125
X197.85Y-121.35
X197.95Y-167.6
X198.012Y-176.05
X198.012Y-180.75
X198.4Y-173.4
X199.175Y-114.45
X199.175Y-121.45
X199.482Y-167.9
X199.85Y-179.5
X200.144Y-183.912
X200.55Y-180.1
X200.837Y-163.387
X201.207Y-167.9
X201.4Y-187.1
X202.17Y-153.8
X202.17Y-155.78
X203.025Y-160.3
X203.4Y-168.262
X203.95Y-138.2
X204.15Y-159.8
X204.9Y-180.25
X205.0Y-159.8
X205.0Y-166.537
X205.6Y-125.287
X205.7Y-180.2
X206.05Y-160.275
X206.444Y-182.188
X206.85Y-117.68
X207.0Y-180.2
X207.275Y-165.1
X207.687Y-115.453
X207.85Y-187.15
X208.45Y-165.6
X208.7Y-100.15
X208.737Y-171.55
X209.688Y-176.45
X209.775Y-165.0
X210.362Y-144.338
X210.462Y-171.55
X210.662Y-180.35
X211.412Y-176.45
X211.8Y-134.25
X211.8Y-136.72
X212.45Y-122.3
X213.0Y-157.25
X213.5Y-171.85
X213.5Y-173.3
X213.5Y-175.0
X213.5Y-176.3
X213.95Y-165.0
X214.05Y-171.15
X214.05Y-172.55
X214.05Y-174.1
X214.1Y-175.6
X214.412Y-180.35
X214.55Y-124.75
X215.125Y-106.237
X216.51Y-98.61
X217.05Y-121.55
X217.15Y-182.05
X218.1Y-119.15
X218.337Y-170.2
X219.887Y-163.387
X221.07Y-153.8
X221.09Y-155.77
X222.75Y-138.25
X223.55Y-167.075
X224.303Y-164.43
X224.65Y-125.287
X224.9Y-168.037
X225.45Y-164.15
X225.827Y-115.453
X225.83Y-117.71
X226.15Y-163.5
X226.55Y-164.75
X226.55Y-179.688
X227.25Y-164.15
X227.7Y-100.1
X227.95Y-163.5
X228.05Y-167.075
X228.15Y-179.688
X228.559Y-160.884
X228.625Y-187.85
X229.3Y-160.2
X229.412Y-144.338
X230.25Y-159.25
X230.67Y-134.25
X230.67Y-136.72
X232.2Y-157.3
X232.25Y-181.1
X232.25Y-183.7
X232.5Y-159.4
X232.5Y-160.2
X232.5Y-161.0
X233.3Y-114.85
X233.45Y-164.475
X233.75Y-175.65
X233.75Y-177.0
X234.175Y-106.237
X234.225Y-187.825
X234.35Y-174.95
X234.35Y-176.35
X234.95Y-122.65
X235.52Y-98.61
X237.05Y-119.2
X238.938Y-163.387
X239.65Y-111.15
X239.7Y-112.0
X239.7Y-112.95
X239.7Y-113.9
X239.9Y-115.15
X240.2Y-153.79
X240.21Y-155.77
X242.05Y-138.25
X243.7Y-125.287
X244.75Y-113.812
X244.9Y-117.64
X245.14Y-116.9
X245.97Y-115.49
X246.5Y-100.15
X246.65Y-168.1
X246.65Y-169.6
X246.85Y-114.5
X247.25Y-162.95
X247.25Y-163.75
X247.35Y-168.85
X247.35Y-170.35
X247.56Y-119.6
X248.025Y-176.325
X248.15Y-160.75
X248.462Y-144.338
X248.75Y-162.95
X248.75Y-163.75
X248.85Y-160.0
X249.54Y-134.25
X249.55Y-136.73
X249.7Y-159.2
X251.4Y-157.25
X251.4Y-159.2
X251.4Y-160.0
X251.4Y-160.8
X251.6Y-113.6
X252.25Y-118.9
X252.625Y-112.925
X252.7Y-111.65
X252.72Y-119.6
X252.8Y-114.35
X253.225Y-106.237
X253.225Y-182.438
X253.4Y-111.1
X253.4Y-117.65
X254.0Y-118.35
X254.41Y-98.62
X254.54Y-173.09
X254.54Y-174.82
X254.6Y-117.0
X255.225Y-127.525
X256.35Y-119.15
X257.988Y-163.387
X259.02Y-153.79
X259.02Y-155.78
X260.9Y-138.25
X262.75Y-125.287
X263.887Y-115.503
X263.97Y-117.68
X265.75Y-150.55
X265.75Y-152.8
X265.8Y-100.1
X266.25Y-161.35
X266.25Y-162.3
X266.35Y-160.45
X267.05Y-159.6
X267.075Y-176.325
X267.512Y-144.338
X268.3Y-114.0
X268.3Y-160.45
X268.65Y-122.5
X268.82Y-136.72
X268.83Y-134.25
X269.5Y-159.85
X270.5Y-157.3
X270.75Y-160.15
X271.3Y-164.05
X271.425Y-125.15
X272.15Y-122.15
X272.275Y-106.237
X272.275Y-182.438
X273.34Y-173.08
X273.35Y-174.83
X273.65Y-98.63
X275.15Y-119.2
X277.037Y-163.387
X277.06Y-153.78
X277.79Y-154.42
X278.04Y-155.77
X278.12Y-176.71
X278.2Y-167.3
X278.45Y-168.75
X278.45Y-170.15
X279.3Y-169.4
X279.3Y-170.8
X279.95Y-138.25
X279.988Y-167.6
X280.5Y-174.1
X281.0Y-153.75
X281.19Y-172.64
X281.25Y-164.925
X281.712Y-167.6
X281.72Y-154.42
X281.8Y-125.287
X282.16Y-158.64
X282.566Y-172.212
X282.89Y-117.7
X282.953Y-115.503
X283.15Y-164.15
X283.35Y-171.5
X284.65Y-168.525
X284.8Y-100.1
X285.65Y-126.7
X285.97Y-158.64
X286.125Y-176.325
X286.23Y-173.65
X286.562Y-144.338
X286.94Y-172.96
X286.95Y-159.45
X287.5Y-160.15
X287.85Y-134.28
X287.87Y-136.68
X288.2Y-160.8
X288.65Y-171.55
X288.65Y-172.4
X288.925Y-126.725
X289.85Y-165.55
X290.15Y-162.05
X290.875Y-167.975
X291.325Y-106.237
X291.325Y-182.438
X291.4Y-122.7
X291.55Y-167.425
X292.38Y-174.85
X292.62Y-98.62
X292.725Y-168.825
X292.75Y-169.6
X292.75Y-176.41
X292.775Y-170.425
X292.775Y-171.2
X294.1Y-159.45
X294.35Y-119.2
X296.75Y-157.25
X297.5Y-160.1
X300.85Y-125.287
X301.613Y-115.503
X301.8Y-117.67
X303.231Y-163.387
X304.56Y-155.78
X304.57Y-153.79
X305.175Y-176.325
X309.61Y-116.43
X310.375Y-182.438
X310.7Y-138.2
X311.3Y-125.875
X311.61Y-172.97
X311.61Y-174.83
X312.43Y-116.44
X313.4Y-100.1
X314.3Y-120.49
X314.55Y-125.825
X316.15Y-122.45
X316.15Y-164.225
X316.15Y-165.875
X316.43Y-120.46
X317.4Y-165.85
X317.519Y-144.338
X317.8Y-119.2
X318.2Y-165.85
X318.95Y-165.85
X319.17Y-136.73
X319.18Y-133.47
X319.85Y-165.85
X319.9Y-106.237
X321.27Y-98.59
X323.0Y-157.25
X323.7Y-159.2
X324.225Y-176.325
X324.662Y-125.287
X325.85Y-115.87
X325.85Y-117.66
X329.425Y-163.387
X329.425Y-182.438
X329.5Y-137.8
X330.59Y-153.79
X330.61Y-155.76
X330.62Y-172.96
X330.62Y-174.83
X331.7Y-135.5
X334.188Y-135.95
X334.188Y-137.775
X335.837Y-135.95
X335.837Y-137.775
X337.438Y-135.95
X337.438Y-137.775
X339.037Y-135.95
X339.037Y-137.775
X339.65Y-121.55
X341.65Y-100.15
X341.95Y-119.2
X342.95Y-129.387
X343.275Y-138.225
X343.275Y-157.275
X343.275Y-176.325
X344.75Y-132.5
X344.85Y-131.45
X345.6Y-132.45
X345.657Y-131.1
X346.55Y-132.3
X348.41Y-106.362
X348.475Y-125.287
X348.475Y-144.338
X348.475Y-163.387
X348.475Y-182.438
X350.45Y-98.63
T2
X202.219Y-173.775
X202.219Y-175.05
X202.219Y-176.325
X203.494Y-173.775
X203.494Y-175.05
X203.494Y-176.325
X204.769Y-173.775
X204.769Y-175.05
X204.769Y-176.325
T3
X209.125Y-183.05
X211.665Y-183.05
X214.205Y-183.05
T4
X66.825Y-111.9
X74.1Y-180.625
X216.25Y-148.35
X334.8Y-107.4
X336.175Y-168.0
T0
M30
