M48
; DRILL file {KiCad (6.0.0)} date Sun Aug 25 19:28:50 2024
; FORMAT={-:-/ absolute / metric / decimal}
; #@! TF.CreationDate,2024-08-25T19:28:50-07:00
; #@! TF.GenerationSoftware,Kicad,Pcbnew,(6.0.0)
; #@! TF.FileFunction,NonPlated,1,2,NPTH
FMAT,2
METRIC
; #@! TA.AperFunction,NonPlated,NPTH,ComponentDrill
T1C1.740
; #@! TA.AperFunction,NonPlated,NPTH,ComponentDrill
T2C3.048
; #@! TA.AperFunction,NonPlated,NPTH,ComponentDrill
T3C3.988
%
G90
G05
T1
X54.895Y-104.875
X57.276Y-181.075
X59.657Y-123.925
X62.039Y-142.975
X65.055Y-104.875
X66.801Y-162.025
X67.436Y-181.075
X69.817Y-123.925
X72.199Y-142.975
X73.945Y-104.875
X76.961Y-162.025
X81.089Y-181.075
X83.47Y-123.925
X84.105Y-104.875
X88.233Y-142.975
X91.249Y-181.075
X92.995Y-104.875
X93.63Y-123.925
X97.757Y-162.025
X98.392Y-142.975
X102.52Y-123.925
X103.155Y-104.875
X104.901Y-181.075
X107.282Y-142.975
X107.917Y-162.025
X112.045Y-104.875
X112.68Y-123.925
X115.061Y-181.075
X116.807Y-162.025
X117.442Y-142.975
X121.57Y-123.925
X122.205Y-104.875
X126.332Y-142.975
X126.968Y-162.025
X131.095Y-104.875
X131.73Y-123.925
X135.857Y-162.025
X136.493Y-142.975
X140.62Y-123.925
X141.255Y-104.875
X145.382Y-142.975
X146.017Y-162.025
X150.145Y-104.875
X150.78Y-123.925
X154.907Y-162.025
X155.542Y-142.975
X159.67Y-123.925
X160.305Y-104.875
X164.433Y-142.975
X165.067Y-162.025
X169.195Y-104.875
X169.83Y-123.925
X173.957Y-162.025
X174.593Y-142.975
X176.339Y-181.075
X178.72Y-123.925
X179.355Y-104.875
X183.482Y-142.975
X184.117Y-162.025
X186.499Y-181.075
X188.245Y-104.875
X188.88Y-123.925
X193.007Y-162.025
X193.642Y-142.975
X197.77Y-123.925
X198.405Y-104.875
X202.532Y-142.975
X203.167Y-162.025
X207.295Y-104.875
X207.93Y-123.925
X212.058Y-162.025
X212.692Y-142.975
X216.82Y-123.925
X217.455Y-104.875
X221.582Y-142.975
X222.218Y-162.025
X226.345Y-104.875
X226.98Y-123.925
X231.107Y-162.025
X231.742Y-142.975
X235.87Y-123.925
X236.505Y-104.875
X240.632Y-142.975
X241.267Y-162.025
X245.395Y-104.875
X245.395Y-181.075
X246.03Y-123.925
X250.157Y-162.025
X250.792Y-142.975
X254.92Y-123.925
X255.555Y-104.875
X255.555Y-181.075
X259.683Y-142.975
X260.317Y-162.025
X264.445Y-104.875
X264.445Y-181.075
X265.08Y-123.925
X269.207Y-162.025
X269.842Y-142.975
X273.97Y-123.925
X274.605Y-104.875
X274.605Y-181.075
X278.732Y-142.975
X279.368Y-162.025
X283.495Y-104.875
X283.495Y-181.075
X284.13Y-123.925
X288.892Y-142.975
X293.02Y-123.925
X293.655Y-104.875
X293.655Y-181.075
X295.401Y-162.025
X302.545Y-181.075
X303.18Y-123.925
X305.561Y-162.025
X309.689Y-142.975
X312.07Y-104.875
X312.705Y-181.075
X316.832Y-123.925
X319.849Y-142.975
X321.595Y-162.025
X321.595Y-181.075
X322.23Y-104.875
X326.993Y-123.925
X331.755Y-162.025
X331.755Y-181.075
X340.645Y-104.875
X340.645Y-123.925
X340.645Y-142.975
X340.645Y-162.025
X340.645Y-181.075
X350.805Y-104.875
X350.805Y-123.925
X350.805Y-142.975
X350.805Y-162.025
X350.805Y-181.075
T2
X59.975Y-155.04
X83.787Y-155.04
X131.419Y-188.06
X231.419Y-188.06
X302.863Y-135.99
X305.244Y-97.89
X326.675Y-135.99
X329.056Y-97.89
T3
X59.975Y-170.28
X83.787Y-170.28
X131.419Y-172.82
X231.419Y-172.82
X302.863Y-151.23
X305.244Y-113.13
X326.675Y-151.23
X329.056Y-113.13
T0
M30
